<mxfile host="Electron" modified="2023-12-19T13:07:24.958Z" agent="Mozilla/5.0 (Windows NT 10.0; Win64; x64) AppleWebKit/537.36 (KHTML, like Gecko) draw.io/22.0.3 Chrome/114.0.5735.289 Electron/25.8.4 Safari/537.36" etag="yrH_FR8j5E-hKjl_ycfl" version="22.0.3" type="device">
  <diagram name="Core" id="tFFnffmi3e7kqkg1E_XP">
    <mxGraphModel dx="2029" dy="1200" grid="0" gridSize="10" guides="1" tooltips="1" connect="1" arrows="1" fold="1" page="1" pageScale="1" pageWidth="1100" pageHeight="1000" background="none" math="1" shadow="1">
      <root>
        <mxCell id="0" />
        <mxCell id="1" parent="0" />
        <mxCell id="MyVD6oUSzkz2Ww6DniEh-179" value="" style="endArrow=classic;html=1;rounded=0;comic=0;jiggle=0;enumerate=0;backgroundOutline=0;metaEdit=0;fixDash=0;deletable=1;snapToPoint=0;exitX=0;exitY=0.5;exitDx=0;exitDy=0;" edge="1" parent="1" source="MyVD6oUSzkz2Ww6DniEh-180">
          <mxGeometry width="50" height="50" relative="1" as="geometry">
            <mxPoint x="277" y="614.25" as="sourcePoint" />
            <mxPoint x="247" y="614.25" as="targetPoint" />
          </mxGeometry>
        </mxCell>
        <mxCell id="MyVD6oUSzkz2Ww6DniEh-180" value="CLK_sys" style="text;html=1;strokeColor=none;fillColor=none;align=center;verticalAlign=middle;whiteSpace=wrap;rounded=0;flipH=1;flipV=0;direction=west;" vertex="1" parent="1">
          <mxGeometry x="161" y="607.25" width="60" height="14" as="geometry" />
        </mxCell>
        <mxCell id="MyVD6oUSzkz2Ww6DniEh-181" value="" style="endArrow=classic;html=1;rounded=0;comic=0;jiggle=0;enumerate=0;backgroundOutline=0;metaEdit=0;fixDash=0;deletable=1;snapToPoint=0;exitX=0;exitY=0.5;exitDx=0;exitDy=0;" edge="1" parent="1" source="MyVD6oUSzkz2Ww6DniEh-182">
          <mxGeometry width="50" height="50" relative="1" as="geometry">
            <mxPoint x="277" y="632.25" as="sourcePoint" />
            <mxPoint x="247" y="632.25" as="targetPoint" />
          </mxGeometry>
        </mxCell>
        <mxCell id="MyVD6oUSzkz2Ww6DniEh-182" value="&lt;br&gt;&lt;u&gt;&amp;nbsp; &amp;nbsp; &amp;nbsp; &amp;nbsp; &amp;nbsp; &amp;nbsp;&lt;/u&gt;&lt;br&gt;RESET&lt;br&gt;&lt;br&gt;&lt;br&gt;" style="text;html=1;strokeColor=none;fillColor=none;align=center;verticalAlign=middle;whiteSpace=wrap;rounded=0;horizontal=1;labelPosition=center;verticalLabelPosition=middle;flipH=1;flipV=0;direction=west;" vertex="1" parent="1">
          <mxGeometry x="161" y="624.25" width="60" height="16" as="geometry" />
        </mxCell>
        <mxCell id="MyVD6oUSzkz2Ww6DniEh-189" value="" style="endArrow=classic;html=1;rounded=0;comic=0;jiggle=0;enumerate=0;backgroundOutline=0;metaEdit=0;fixDash=0;deletable=1;snapToPoint=0;exitX=0;exitY=0.5;exitDx=0;exitDy=0;" edge="1" parent="1" source="MyVD6oUSzkz2Ww6DniEh-190">
          <mxGeometry width="50" height="50" relative="1" as="geometry">
            <mxPoint x="277" y="650.75" as="sourcePoint" />
            <mxPoint x="247" y="650.75" as="targetPoint" />
          </mxGeometry>
        </mxCell>
        <mxCell id="MyVD6oUSzkz2Ww6DniEh-190" value="ir_we" style="text;html=1;strokeColor=none;fillColor=none;align=center;verticalAlign=middle;whiteSpace=wrap;rounded=0;flipH=1;flipV=0;direction=west;" vertex="1" parent="1">
          <mxGeometry x="161" y="643.75" width="60" height="14" as="geometry" />
        </mxCell>
        <mxCell id="MyVD6oUSzkz2Ww6DniEh-1" value="&lt;b&gt;&lt;font style=&quot;font-size: 22px;&quot;&gt;Controller&lt;/font&gt;&lt;/b&gt;" style="rounded=0;whiteSpace=wrap;html=1;comic=0;jiggle=0;enumerate=0;backgroundOutline=0;metaEdit=0;fixDash=0;deletable=1;snapToPoint=0;" vertex="1" parent="1">
          <mxGeometry x="199" y="763" width="745" height="60" as="geometry" />
        </mxCell>
        <mxCell id="MyVD6oUSzkz2Ww6DniEh-7" value="&lt;b&gt;&lt;font style=&quot;font-size: 22px;&quot;&gt;Clock controller&lt;/font&gt;&lt;/b&gt;" style="rounded=0;whiteSpace=wrap;html=1;comic=0;jiggle=0;enumerate=0;backgroundOutline=0;metaEdit=0;fixDash=0;deletable=1;snapToPoint=0;" vertex="1" parent="1">
          <mxGeometry x="511" y="73" width="121" height="64" as="geometry" />
        </mxCell>
        <mxCell id="MyVD6oUSzkz2Ww6DniEh-8" value="&lt;b&gt;&lt;font style=&quot;font-size: 24px;&quot;&gt;16-bit Bus&lt;/font&gt;&lt;/b&gt;" style="rounded=0;labelBorderColor=none;verticalAlign=middle;fontColor=default;whiteSpace=wrap;html=1;horizontal=0;comic=0;jiggle=0;enumerate=0;backgroundOutline=0;metaEdit=0;fixDash=0;deletable=1;snapToPoint=0;" vertex="1" parent="1">
          <mxGeometry x="552" y="164" width="39" height="572" as="geometry" />
        </mxCell>
        <mxCell id="MyVD6oUSzkz2Ww6DniEh-35" value="" style="group;comic=0;jiggle=0;enumerate=0;backgroundOutline=0;metaEdit=0;fixDash=0;deletable=1;snapToPoint=0;" vertex="1" connectable="0" parent="1">
          <mxGeometry x="733" y="441" width="237.5" height="203" as="geometry" />
        </mxCell>
        <mxCell id="MyVD6oUSzkz2Ww6DniEh-36" value="" style="group;comic=0;jiggle=0;enumerate=0;backgroundOutline=0;metaEdit=0;fixDash=0;deletable=1;snapToPoint=0;" vertex="1" connectable="0" parent="MyVD6oUSzkz2Ww6DniEh-35">
          <mxGeometry width="237.50000000000003" height="203" as="geometry" />
        </mxCell>
        <mxCell id="MyVD6oUSzkz2Ww6DniEh-3" value="&lt;h1&gt;&lt;b&gt;&lt;font style=&quot;font-size: 22px;&quot;&gt;ALU&lt;/font&gt;&lt;/b&gt;&lt;/h1&gt;" style="rounded=0;whiteSpace=wrap;html=1;verticalAlign=top;comic=0;jiggle=0;enumerate=0;backgroundOutline=0;metaEdit=0;fixDash=0;deletable=1;snapToPoint=0;" vertex="1" parent="MyVD6oUSzkz2Ww6DniEh-36">
          <mxGeometry width="237.50000000000003" height="203" as="geometry" />
        </mxCell>
        <mxCell id="MyVD6oUSzkz2Ww6DniEh-34" value="" style="group;comic=0;jiggle=0;enumerate=0;backgroundOutline=0;metaEdit=0;fixDash=0;deletable=1;snapToPoint=0;" vertex="1" connectable="0" parent="MyVD6oUSzkz2Ww6DniEh-36">
          <mxGeometry x="11.422845691382767" y="55" width="215.1302605210421" height="136" as="geometry" />
        </mxCell>
        <mxCell id="MyVD6oUSzkz2Ww6DniEh-29" value="&lt;h2&gt;Arithmetic and Logic unit&lt;/h2&gt;" style="rounded=0;whiteSpace=wrap;html=1;comic=0;jiggle=0;enumerate=0;backgroundOutline=0;metaEdit=0;fixDash=0;deletable=1;snapToPoint=0;" vertex="1" parent="MyVD6oUSzkz2Ww6DniEh-34">
          <mxGeometry x="116.13226452905812" width="98.99799599198397" height="136" as="geometry" />
        </mxCell>
        <mxCell id="MyVD6oUSzkz2Ww6DniEh-30" value="&lt;h2&gt;Acc&lt;/h2&gt;" style="rounded=0;whiteSpace=wrap;html=1;fillColor=#fff2cc;strokeColor=#d6b656;comic=0;jiggle=0;enumerate=0;backgroundOutline=0;metaEdit=0;fixDash=0;deletable=1;snapToPoint=0;" vertex="1" parent="MyVD6oUSzkz2Ww6DniEh-34">
          <mxGeometry width="105.66132264529058" height="27.200000000000003" as="geometry" />
        </mxCell>
        <mxCell id="MyVD6oUSzkz2Ww6DniEh-31" value="&lt;h2&gt;TMP&lt;/h2&gt;" style="rounded=0;whiteSpace=wrap;html=1;fillColor=#fff2cc;strokeColor=#d6b656;comic=0;jiggle=0;enumerate=0;backgroundOutline=0;metaEdit=0;fixDash=0;deletable=1;snapToPoint=0;" vertex="1" parent="MyVD6oUSzkz2Ww6DniEh-34">
          <mxGeometry y="36" width="105.66132264529058" height="27.200000000000003" as="geometry" />
        </mxCell>
        <mxCell id="MyVD6oUSzkz2Ww6DniEh-32" value="&lt;h2&gt;TMP 2&lt;/h2&gt;" style="rounded=0;whiteSpace=wrap;html=1;fillColor=#fff2cc;strokeColor=#d6b656;comic=0;jiggle=0;enumerate=0;backgroundOutline=0;metaEdit=0;fixDash=0;deletable=1;snapToPoint=0;" vertex="1" parent="MyVD6oUSzkz2Ww6DniEh-34">
          <mxGeometry y="73.60000000000001" width="105.66132264529058" height="27.200000000000003" as="geometry" />
        </mxCell>
        <mxCell id="MyVD6oUSzkz2Ww6DniEh-33" value="&lt;h2&gt;Flags&lt;/h2&gt;" style="rounded=0;whiteSpace=wrap;html=1;fillColor=#fff2cc;strokeColor=#d6b656;comic=0;jiggle=0;enumerate=0;backgroundOutline=0;metaEdit=0;fixDash=0;deletable=1;snapToPoint=0;" vertex="1" parent="MyVD6oUSzkz2Ww6DniEh-34">
          <mxGeometry y="108.80000000000001" width="105.66132264529058" height="27.200000000000003" as="geometry" />
        </mxCell>
        <mxCell id="MyVD6oUSzkz2Ww6DniEh-6" value="&lt;b&gt;&lt;font style=&quot;font-size: 22px;&quot;&gt;Instruction register&lt;/font&gt;&lt;/b&gt;" style="rounded=0;whiteSpace=wrap;html=1;perimeter=rectanglePerimeter;fixDash=0;container=0;fillColor=#fff2cc;strokeColor=#d6b656;comic=0;jiggle=0;enumerate=0;backgroundOutline=0;metaEdit=0;deletable=1;snapToPoint=0;" vertex="1" parent="1">
          <mxGeometry x="247" y="594" width="163" height="77" as="geometry" />
        </mxCell>
        <mxCell id="MyVD6oUSzkz2Ww6DniEh-40" value="" style="group;comic=0;jiggle=0;enumerate=0;backgroundOutline=0;metaEdit=0;fixDash=0;deletable=1;snapToPoint=0;" vertex="1" connectable="0" parent="1">
          <mxGeometry x="244" y="182" width="161" height="217" as="geometry" />
        </mxCell>
        <mxCell id="MyVD6oUSzkz2Ww6DniEh-4" value="&lt;h1&gt;&lt;b&gt;&lt;font style=&quot;font-size: 22px;&quot;&gt;Memroy&lt;/font&gt;&lt;/b&gt;&lt;/h1&gt;" style="rounded=0;whiteSpace=wrap;html=1;verticalAlign=top;comic=0;jiggle=0;enumerate=0;backgroundOutline=0;metaEdit=0;fixDash=0;deletable=1;snapToPoint=0;" vertex="1" parent="MyVD6oUSzkz2Ww6DniEh-40">
          <mxGeometry width="161" height="217" as="geometry" />
        </mxCell>
        <mxCell id="MyVD6oUSzkz2Ww6DniEh-23" value="&lt;h2&gt;&lt;span style=&quot;&quot;&gt;MAR&lt;/span&gt;&lt;/h2&gt;" style="rounded=0;whiteSpace=wrap;html=1;fontStyle=1;fillColor=#fff2cc;strokeColor=#d6b656;comic=0;jiggle=0;enumerate=0;backgroundOutline=0;metaEdit=0;fixDash=0;deletable=1;snapToPoint=0;" vertex="1" parent="MyVD6oUSzkz2Ww6DniEh-40">
          <mxGeometry x="8.803216374269027" y="60" width="144.6457894736842" height="31" as="geometry" />
        </mxCell>
        <mxCell id="MyVD6oUSzkz2Ww6DniEh-24" value="&lt;h2&gt;64 Kb RAM&lt;/h2&gt;" style="rounded=0;whiteSpace=wrap;html=1;comic=0;jiggle=0;enumerate=0;backgroundOutline=0;metaEdit=0;fixDash=0;deletable=1;snapToPoint=0;" vertex="1" parent="MyVD6oUSzkz2Ww6DniEh-40">
          <mxGeometry x="8.803216374269027" y="100" width="144.6457894736842" height="104" as="geometry" />
        </mxCell>
        <mxCell id="MyVD6oUSzkz2Ww6DniEh-42" value="" style="group;comic=0;jiggle=0;enumerate=0;backgroundOutline=0;metaEdit=0;fixDash=0;deletable=1;snapToPoint=0;" vertex="1" connectable="0" parent="1">
          <mxGeometry x="733" y="177" width="237" height="237" as="geometry" />
        </mxCell>
        <mxCell id="MyVD6oUSzkz2Ww6DniEh-2" value="&lt;h1&gt;&lt;b&gt;&lt;font style=&quot;font-size: 22px;&quot;&gt;Register File&lt;/font&gt;&lt;/b&gt;&lt;/h1&gt;" style="rounded=0;whiteSpace=wrap;html=1;verticalAlign=top;horizontal=1;movable=1;resizable=1;rotatable=1;deletable=1;editable=1;locked=0;connectable=1;comic=0;jiggle=0;enumerate=0;backgroundOutline=0;metaEdit=0;fixDash=0;snapToPoint=0;" vertex="1" parent="MyVD6oUSzkz2Ww6DniEh-42">
          <mxGeometry width="237" height="237" as="geometry" />
        </mxCell>
        <mxCell id="MyVD6oUSzkz2Ww6DniEh-9" value="&lt;h2&gt;B&lt;/h2&gt;" style="rounded=0;whiteSpace=wrap;html=1;fillColor=#fff2cc;strokeColor=#d6b656;comic=0;jiggle=0;enumerate=0;backgroundOutline=0;metaEdit=0;fixDash=0;deletable=1;snapToPoint=0;" vertex="1" parent="MyVD6oUSzkz2Ww6DniEh-42">
          <mxGeometry x="10.551369863013747" y="58.790697674418595" width="103.89041095890411" height="22.71866137266024" as="geometry" />
        </mxCell>
        <mxCell id="MyVD6oUSzkz2Ww6DniEh-11" value="&lt;h2&gt;C&lt;/h2&gt;" style="rounded=0;whiteSpace=wrap;html=1;fillColor=#fff2cc;strokeColor=#d6b656;comic=0;jiggle=0;enumerate=0;backgroundOutline=0;metaEdit=0;fixDash=0;deletable=1;snapToPoint=0;" vertex="1" parent="MyVD6oUSzkz2Ww6DniEh-42">
          <mxGeometry x="124.99315068493149" y="58.790697674418595" width="103.89041095890411" height="22.71866137266024" as="geometry" />
        </mxCell>
        <mxCell id="MyVD6oUSzkz2Ww6DniEh-12" value="&lt;h2&gt;D&lt;/h2&gt;" style="rounded=0;whiteSpace=wrap;html=1;fillColor=#fff2cc;strokeColor=#d6b656;comic=0;jiggle=0;enumerate=0;backgroundOutline=0;metaEdit=0;fixDash=0;deletable=1;snapToPoint=0;" vertex="1" parent="MyVD6oUSzkz2Ww6DniEh-42">
          <mxGeometry x="10.551369863013747" y="87.3346568349404" width="103.89041095890411" height="22.71866137266024" as="geometry" />
        </mxCell>
        <mxCell id="MyVD6oUSzkz2Ww6DniEh-13" value="&lt;h2&gt;E&lt;/h2&gt;" style="rounded=0;whiteSpace=wrap;html=1;fillColor=#fff2cc;strokeColor=#d6b656;comic=0;jiggle=0;enumerate=0;backgroundOutline=0;metaEdit=0;fixDash=0;deletable=1;snapToPoint=0;" vertex="1" parent="MyVD6oUSzkz2Ww6DniEh-42">
          <mxGeometry x="124.99315068493149" y="87.3346568349404" width="103.89041095890411" height="22.71866137266024" as="geometry" />
        </mxCell>
        <mxCell id="MyVD6oUSzkz2Ww6DniEh-14" value="&lt;h2&gt;H&lt;/h2&gt;" style="rounded=0;whiteSpace=wrap;html=1;fillColor=#fff2cc;strokeColor=#d6b656;comic=0;jiggle=0;enumerate=0;backgroundOutline=0;metaEdit=0;fixDash=0;deletable=1;snapToPoint=0;" vertex="1" parent="MyVD6oUSzkz2Ww6DniEh-42">
          <mxGeometry x="10.551369863013747" y="116.46114577424845" width="103.89041095890411" height="22.71866137266024" as="geometry" />
        </mxCell>
        <mxCell id="MyVD6oUSzkz2Ww6DniEh-15" value="&lt;h2&gt;L&lt;/h2&gt;" style="rounded=0;whiteSpace=wrap;html=1;fillColor=#fff2cc;strokeColor=#d6b656;comic=0;jiggle=0;enumerate=0;backgroundOutline=0;metaEdit=0;fixDash=0;deletable=1;snapToPoint=0;" vertex="1" parent="MyVD6oUSzkz2Ww6DniEh-42">
          <mxGeometry x="124.99315068493149" y="116.46114577424845" width="103.89041095890411" height="22.71866137266024" as="geometry" />
        </mxCell>
        <mxCell id="MyVD6oUSzkz2Ww6DniEh-16" value="&lt;h2&gt;W&lt;/h2&gt;" style="rounded=0;whiteSpace=wrap;html=1;fillColor=#fff2cc;strokeColor=#d6b656;comic=0;jiggle=0;enumerate=0;backgroundOutline=0;metaEdit=0;fixDash=0;deletable=1;snapToPoint=0;" vertex="1" parent="MyVD6oUSzkz2Ww6DniEh-42">
          <mxGeometry x="10.551369863013747" y="146.17016449234262" width="103.89041095890411" height="22.71866137266024" as="geometry" />
        </mxCell>
        <mxCell id="MyVD6oUSzkz2Ww6DniEh-17" value="&lt;h2&gt;Z&lt;/h2&gt;" style="rounded=0;whiteSpace=wrap;html=1;fillColor=#fff2cc;strokeColor=#d6b656;comic=0;jiggle=0;enumerate=0;backgroundOutline=0;metaEdit=0;fixDash=0;deletable=1;snapToPoint=0;" vertex="1" parent="MyVD6oUSzkz2Ww6DniEh-42">
          <mxGeometry x="124.18150684931516" y="146.17016449234262" width="103.89041095890411" height="22.71866137266024" as="geometry" />
        </mxCell>
        <mxCell id="MyVD6oUSzkz2Ww6DniEh-18" value="&lt;h2&gt;PC&lt;/h2&gt;" style="rounded=0;whiteSpace=wrap;html=1;fillColor=#fff2cc;strokeColor=#d6b656;comic=0;jiggle=0;enumerate=0;backgroundOutline=0;metaEdit=0;fixDash=0;deletable=1;snapToPoint=0;" vertex="1" parent="MyVD6oUSzkz2Ww6DniEh-42">
          <mxGeometry x="9.33390410958907" y="174.71412365286443" width="218.33219178082192" height="22.71866137266024" as="geometry" />
        </mxCell>
        <mxCell id="MyVD6oUSzkz2Ww6DniEh-19" value="&lt;h2&gt;SP&lt;/h2&gt;" style="rounded=0;whiteSpace=wrap;html=1;fillColor=#fff2cc;strokeColor=#d6b656;comic=0;jiggle=0;enumerate=0;backgroundOutline=0;metaEdit=0;fixDash=0;deletable=1;snapToPoint=0;" vertex="1" parent="MyVD6oUSzkz2Ww6DniEh-42">
          <mxGeometry x="9.33390410958907" y="203.2580828133863" width="218.33219178082192" height="22.71866137266024" as="geometry" />
        </mxCell>
        <mxCell id="MyVD6oUSzkz2Ww6DniEh-43" value="" style="shape=flexArrow;endArrow=classic;startArrow=none;html=1;rounded=0;entryX=0;entryY=0.25;entryDx=0;entryDy=0;exitX=0.982;exitY=0.126;exitDx=0;exitDy=0;comic=0;jiggle=0;enumerate=0;backgroundOutline=0;metaEdit=0;fixDash=0;deletable=1;snapToPoint=0;startFill=0;exitPerimeter=0;" edge="1" parent="1" source="MyVD6oUSzkz2Ww6DniEh-8" target="MyVD6oUSzkz2Ww6DniEh-2">
          <mxGeometry width="100" height="100" relative="1" as="geometry">
            <mxPoint x="496" y="479" as="sourcePoint" />
            <mxPoint x="596" y="379" as="targetPoint" />
          </mxGeometry>
        </mxCell>
        <mxCell id="MyVD6oUSzkz2Ww6DniEh-45" value="" style="shape=flexArrow;endArrow=none;startArrow=classic;html=1;rounded=0;exitX=1;exitY=0.25;exitDx=0;exitDy=0;comic=0;jiggle=0;enumerate=0;backgroundOutline=0;metaEdit=0;fixDash=0;deletable=1;snapToPoint=0;endFill=0;entryX=0.018;entryY=0.126;entryDx=0;entryDy=0;entryPerimeter=0;" edge="1" parent="1" source="MyVD6oUSzkz2Ww6DniEh-4" target="MyVD6oUSzkz2Ww6DniEh-8">
          <mxGeometry width="100" height="100" relative="1" as="geometry">
            <mxPoint x="496" y="480" as="sourcePoint" />
            <mxPoint x="552" y="236" as="targetPoint" />
          </mxGeometry>
        </mxCell>
        <mxCell id="MyVD6oUSzkz2Ww6DniEh-48" value="" style="shape=flexArrow;endArrow=block;startArrow=none;html=1;rounded=0;exitX=0.995;exitY=0.603;exitDx=0;exitDy=0;startWidth=10.546623794212218;startSize=5.90096463022508;endWidth=10.546623794212218;endSize=5.90096463022508;width=6.4;fillColor=none;entryX=0;entryY=0.25;entryDx=0;entryDy=0;comic=0;jiggle=0;enumerate=0;backgroundOutline=0;metaEdit=0;fixDash=0;deletable=1;snapToPoint=0;exitPerimeter=0;endFill=0;startFill=0;" edge="1" parent="1" target="MyVD6oUSzkz2Ww6DniEh-3">
          <mxGeometry width="100" height="100" relative="1" as="geometry">
            <mxPoint x="590.8050000000001" y="490.91599999999994" as="sourcePoint" />
            <mxPoint x="673" y="551" as="targetPoint" />
          </mxGeometry>
        </mxCell>
        <mxCell id="MyVD6oUSzkz2Ww6DniEh-49" value="" style="shape=flexArrow;endArrow=none;startArrow=classic;html=1;rounded=0;exitX=1;exitY=0.5;exitDx=0;exitDy=0;startWidth=10.546623794212218;startSize=5.90096463022508;endWidth=10.546623794212218;endSize=5.90096463022508;width=6.4;fillColor=none;entryX=-0.006;entryY=0.636;entryDx=0;entryDy=0;entryPerimeter=0;comic=0;jiggle=0;enumerate=0;backgroundOutline=0;metaEdit=0;fixDash=0;deletable=1;snapToPoint=0;endFill=0;" edge="1" parent="1" source="MyVD6oUSzkz2Ww6DniEh-5">
          <mxGeometry width="100" height="100" relative="1" as="geometry">
            <mxPoint x="490" y="640" as="sourcePoint" />
            <mxPoint x="551.7660000000001" y="490.44399999999996" as="targetPoint" />
          </mxGeometry>
        </mxCell>
        <mxCell id="MyVD6oUSzkz2Ww6DniEh-53" value="" style="group;comic=0;jiggle=0;enumerate=0;backgroundOutline=0;metaEdit=0;fixDash=0;deletable=1;snapToPoint=0;" vertex="1" connectable="0" parent="1">
          <mxGeometry x="491" y="481" width="39" height="38" as="geometry" />
        </mxCell>
        <mxCell id="MyVD6oUSzkz2Ww6DniEh-57" value="" style="group;comic=0;jiggle=0;enumerate=0;backgroundOutline=0;metaEdit=0;fixDash=0;deletable=1;snapToPoint=0;" vertex="1" connectable="0" parent="MyVD6oUSzkz2Ww6DniEh-53">
          <mxGeometry width="39" height="38" as="geometry" />
        </mxCell>
        <mxCell id="MyVD6oUSzkz2Ww6DniEh-50" value="" style="endArrow=none;html=1;rounded=1;arcSize=10;jumpSize=2;endSize=2;targetPerimeterSpacing=3;strokeColor=default;comic=0;jiggle=0;enumerate=0;backgroundOutline=0;metaEdit=0;fixDash=0;deletable=1;snapToPoint=0;" edge="1" parent="MyVD6oUSzkz2Ww6DniEh-57">
          <mxGeometry width="50" height="50" relative="1" as="geometry">
            <mxPoint x="-14" y="20" as="sourcePoint" />
            <mxPoint x="6" as="targetPoint" />
          </mxGeometry>
        </mxCell>
        <mxCell id="MyVD6oUSzkz2Ww6DniEh-52" value="8-bits" style="text;html=1;strokeColor=none;fillColor=none;align=center;verticalAlign=middle;whiteSpace=wrap;rounded=0;comic=0;jiggle=0;enumerate=0;backgroundOutline=0;metaEdit=0;fixDash=0;deletable=1;snapToPoint=0;" vertex="1" parent="MyVD6oUSzkz2Ww6DniEh-57">
          <mxGeometry x="-23" y="18" width="39" height="20" as="geometry" />
        </mxCell>
        <mxCell id="MyVD6oUSzkz2Ww6DniEh-78" value="" style="endArrow=none;html=1;rounded=1;arcSize=10;jumpSize=2;endSize=2;targetPerimeterSpacing=3;strokeColor=default;comic=0;jiggle=0;enumerate=0;backgroundOutline=0;metaEdit=0;fixDash=0;deletable=1;snapToPoint=0;" edge="1" parent="1">
          <mxGeometry width="50" height="50" relative="1" as="geometry">
            <mxPoint x="650.75" y="502" as="sourcePoint" />
            <mxPoint x="670.75" y="482" as="targetPoint" />
          </mxGeometry>
        </mxCell>
        <mxCell id="MyVD6oUSzkz2Ww6DniEh-79" value="8-bits" style="text;html=1;strokeColor=none;fillColor=none;align=center;verticalAlign=middle;whiteSpace=wrap;rounded=0;comic=0;jiggle=0;enumerate=0;backgroundOutline=0;metaEdit=0;fixDash=0;deletable=1;snapToPoint=0;" vertex="1" parent="1">
          <mxGeometry x="641.75" y="500" width="39" height="20" as="geometry" />
        </mxCell>
        <mxCell id="MyVD6oUSzkz2Ww6DniEh-80" value="" style="endArrow=none;html=1;rounded=1;arcSize=10;jumpSize=2;endSize=2;targetPerimeterSpacing=3;strokeColor=default;comic=0;jiggle=0;enumerate=0;backgroundOutline=0;metaEdit=0;fixDash=0;deletable=1;snapToPoint=0;" edge="1" parent="1">
          <mxGeometry width="50" height="50" relative="1" as="geometry">
            <mxPoint x="642" y="246" as="sourcePoint" />
            <mxPoint x="662" y="226" as="targetPoint" />
          </mxGeometry>
        </mxCell>
        <mxCell id="MyVD6oUSzkz2Ww6DniEh-81" value="16-bits" style="text;html=1;strokeColor=none;fillColor=none;align=center;verticalAlign=middle;whiteSpace=wrap;rounded=0;comic=0;jiggle=0;enumerate=0;backgroundOutline=0;metaEdit=0;fixDash=0;deletable=1;snapToPoint=0;" vertex="1" parent="1">
          <mxGeometry x="632" y="246" width="39" height="20" as="geometry" />
        </mxCell>
        <mxCell id="MyVD6oUSzkz2Ww6DniEh-82" value="" style="endArrow=none;html=1;rounded=1;arcSize=10;jumpSize=2;endSize=2;targetPerimeterSpacing=3;strokeColor=default;comic=0;jiggle=0;enumerate=0;backgroundOutline=0;metaEdit=0;fixDash=0;deletable=1;snapToPoint=0;" edge="1" parent="1">
          <mxGeometry width="50" height="50" relative="1" as="geometry">
            <mxPoint x="476" y="246" as="sourcePoint" />
            <mxPoint x="496" y="226" as="targetPoint" />
          </mxGeometry>
        </mxCell>
        <mxCell id="MyVD6oUSzkz2Ww6DniEh-83" value="16-bits" style="text;html=1;strokeColor=none;fillColor=none;align=center;verticalAlign=middle;whiteSpace=wrap;rounded=0;comic=0;jiggle=0;enumerate=0;backgroundOutline=0;metaEdit=0;fixDash=0;deletable=1;snapToPoint=0;" vertex="1" parent="1">
          <mxGeometry x="467" y="244" width="39" height="20" as="geometry" />
        </mxCell>
        <mxCell id="MyVD6oUSzkz2Ww6DniEh-84" value="" style="endArrow=classic;html=1;rounded=0;entryX=0;entryY=0.5;entryDx=0;entryDy=0;exitX=1;exitY=0.5;exitDx=0;exitDy=0;comic=0;jiggle=0;enumerate=0;backgroundOutline=0;metaEdit=0;fixDash=0;deletable=1;snapToPoint=0;" edge="1" parent="1" source="MyVD6oUSzkz2Ww6DniEh-87" target="MyVD6oUSzkz2Ww6DniEh-7">
          <mxGeometry width="50" height="50" relative="1" as="geometry">
            <mxPoint x="460" y="105" as="sourcePoint" />
            <mxPoint x="574" y="164" as="targetPoint" />
          </mxGeometry>
        </mxCell>
        <mxCell id="MyVD6oUSzkz2Ww6DniEh-87" value="CLK_in" style="text;html=1;strokeColor=none;fillColor=none;align=center;verticalAlign=middle;whiteSpace=wrap;rounded=0;comic=0;jiggle=0;enumerate=0;backgroundOutline=0;metaEdit=0;fixDash=0;deletable=1;snapToPoint=0;" vertex="1" parent="1">
          <mxGeometry x="413" y="90" width="60" height="30" as="geometry" />
        </mxCell>
        <mxCell id="MyVD6oUSzkz2Ww6DniEh-90" value="" style="endArrow=classic;html=1;rounded=0;entryX=0;entryY=0.5;entryDx=0;entryDy=0;exitX=1;exitY=0.5;exitDx=0;exitDy=0;comic=0;jiggle=0;enumerate=0;backgroundOutline=0;metaEdit=0;fixDash=0;deletable=1;snapToPoint=0;" edge="1" parent="1" source="MyVD6oUSzkz2Ww6DniEh-7">
          <mxGeometry width="50" height="50" relative="1" as="geometry">
            <mxPoint x="632" y="104.82999999999998" as="sourcePoint" />
            <mxPoint x="670" y="104.82999999999998" as="targetPoint" />
          </mxGeometry>
        </mxCell>
        <mxCell id="MyVD6oUSzkz2Ww6DniEh-91" value="CLK_sys" style="text;html=1;strokeColor=none;fillColor=none;align=center;verticalAlign=middle;whiteSpace=wrap;rounded=0;comic=0;jiggle=0;enumerate=0;backgroundOutline=0;metaEdit=0;fixDash=0;deletable=1;snapToPoint=0;" vertex="1" parent="1">
          <mxGeometry x="670" y="90" width="60" height="30" as="geometry" />
        </mxCell>
        <mxCell id="MyVD6oUSzkz2Ww6DniEh-93" value="" style="endArrow=classic;html=1;entryX=0.5;entryY=0;entryDx=0;entryDy=0;comic=0;jiggle=0;enumerate=0;backgroundOutline=0;metaEdit=0;fixDash=0;deletable=1;snapToPoint=0;rounded=0;exitX=0.5;exitY=0.988;exitDx=0;exitDy=0;exitPerimeter=0;" edge="1" parent="1" source="MyVD6oUSzkz2Ww6DniEh-94" target="MyVD6oUSzkz2Ww6DniEh-7">
          <mxGeometry width="50" height="50" relative="1" as="geometry">
            <mxPoint x="571" y="47" as="sourcePoint" />
            <mxPoint x="581" y="55.45999999999992" as="targetPoint" />
          </mxGeometry>
        </mxCell>
        <mxCell id="MyVD6oUSzkz2Ww6DniEh-94" value="En_CLK" style="text;html=1;strokeColor=none;fillColor=none;align=center;verticalAlign=middle;whiteSpace=wrap;rounded=0;comic=0;jiggle=0;enumerate=0;backgroundOutline=0;metaEdit=0;fixDash=0;deletable=1;snapToPoint=0;" vertex="1" parent="1">
          <mxGeometry x="541.5" y="17" width="60" height="30" as="geometry" />
        </mxCell>
        <mxCell id="MyVD6oUSzkz2Ww6DniEh-95" value="" style="endArrow=classic;html=1;rounded=0;comic=0;jiggle=0;enumerate=0;backgroundOutline=0;metaEdit=0;fixDash=0;deletable=1;snapToPoint=0;exitX=0;exitY=0.5;exitDx=0;exitDy=0;" edge="1" parent="1" source="MyVD6oUSzkz2Ww6DniEh-96">
          <mxGeometry width="50" height="50" relative="1" as="geometry">
            <mxPoint x="1000" y="262" as="sourcePoint" />
            <mxPoint x="970" y="262" as="targetPoint" />
          </mxGeometry>
        </mxCell>
        <mxCell id="MyVD6oUSzkz2Ww6DniEh-96" value="CLK_sys" style="text;html=1;strokeColor=none;fillColor=none;align=center;verticalAlign=middle;whiteSpace=wrap;rounded=0;" vertex="1" parent="1">
          <mxGeometry x="1000" y="255" width="60" height="14" as="geometry" />
        </mxCell>
        <mxCell id="MyVD6oUSzkz2Ww6DniEh-97" value="" style="endArrow=classic;html=1;rounded=0;comic=0;jiggle=0;enumerate=0;backgroundOutline=0;metaEdit=0;fixDash=0;deletable=1;snapToPoint=0;exitX=0;exitY=0.5;exitDx=0;exitDy=0;" edge="1" parent="1" source="MyVD6oUSzkz2Ww6DniEh-98">
          <mxGeometry width="50" height="50" relative="1" as="geometry">
            <mxPoint x="1000" y="280" as="sourcePoint" />
            <mxPoint x="970" y="280" as="targetPoint" />
          </mxGeometry>
        </mxCell>
        <mxCell id="MyVD6oUSzkz2Ww6DniEh-98" value="&lt;br&gt;&lt;u&gt;&amp;nbsp; &amp;nbsp; &amp;nbsp; &amp;nbsp; &amp;nbsp; &amp;nbsp;&lt;/u&gt;&lt;br&gt;RESET&lt;br&gt;&lt;br&gt;&lt;br&gt;" style="text;html=1;strokeColor=none;fillColor=none;align=center;verticalAlign=middle;whiteSpace=wrap;rounded=0;horizontal=1;labelPosition=center;verticalLabelPosition=middle;" vertex="1" parent="1">
          <mxGeometry x="1000" y="272" width="60" height="16" as="geometry" />
        </mxCell>
        <mxCell id="MyVD6oUSzkz2Ww6DniEh-99" value="" style="endArrow=classic;html=1;rounded=0;comic=0;jiggle=0;enumerate=0;backgroundOutline=0;metaEdit=0;fixDash=0;deletable=1;snapToPoint=0;exitX=0;exitY=0.5;exitDx=0;exitDy=0;" edge="1" parent="1" source="MyVD6oUSzkz2Ww6DniEh-100">
          <mxGeometry width="50" height="50" relative="1" as="geometry">
            <mxPoint x="1000" y="296" as="sourcePoint" />
            <mxPoint x="970" y="296" as="targetPoint" />
          </mxGeometry>
        </mxCell>
        <mxCell id="MyVD6oUSzkz2Ww6DniEh-100" value="rd_sel" style="text;html=1;strokeColor=none;fillColor=none;align=center;verticalAlign=middle;whiteSpace=wrap;rounded=0;" vertex="1" parent="1">
          <mxGeometry x="1000" y="290" width="60" height="13" as="geometry" />
        </mxCell>
        <mxCell id="MyVD6oUSzkz2Ww6DniEh-101" value="" style="endArrow=classic;html=1;rounded=0;comic=0;jiggle=0;enumerate=0;backgroundOutline=0;metaEdit=0;fixDash=0;deletable=1;snapToPoint=0;exitX=0;exitY=0.5;exitDx=0;exitDy=0;" edge="1" parent="1" source="MyVD6oUSzkz2Ww6DniEh-102">
          <mxGeometry width="50" height="50" relative="1" as="geometry">
            <mxPoint x="1000" y="313" as="sourcePoint" />
            <mxPoint x="970" y="313" as="targetPoint" />
          </mxGeometry>
        </mxCell>
        <mxCell id="MyVD6oUSzkz2Ww6DniEh-102" value="wr_sel" style="text;html=1;strokeColor=none;fillColor=none;align=center;verticalAlign=middle;whiteSpace=wrap;rounded=0;" vertex="1" parent="1">
          <mxGeometry x="1000" y="307" width="60" height="13" as="geometry" />
        </mxCell>
        <mxCell id="MyVD6oUSzkz2Ww6DniEh-103" value="" style="endArrow=classic;html=1;rounded=0;comic=0;jiggle=0;enumerate=0;backgroundOutline=0;metaEdit=0;fixDash=0;deletable=1;snapToPoint=0;exitX=0;exitY=0.5;exitDx=0;exitDy=0;" edge="1" parent="1" source="MyVD6oUSzkz2Ww6DniEh-104">
          <mxGeometry width="50" height="50" relative="1" as="geometry">
            <mxPoint x="1000" y="329" as="sourcePoint" />
            <mxPoint x="970" y="329" as="targetPoint" />
          </mxGeometry>
        </mxCell>
        <mxCell id="MyVD6oUSzkz2Ww6DniEh-104" value="ext_op" style="text;html=1;strokeColor=none;fillColor=none;align=center;verticalAlign=middle;whiteSpace=wrap;rounded=0;" vertex="1" parent="1">
          <mxGeometry x="1000" y="322" width="60" height="15" as="geometry" />
        </mxCell>
        <mxCell id="MyVD6oUSzkz2Ww6DniEh-105" value="" style="endArrow=classic;html=1;rounded=0;comic=0;jiggle=0;enumerate=0;backgroundOutline=0;metaEdit=0;fixDash=0;deletable=1;snapToPoint=0;exitX=0;exitY=0.5;exitDx=0;exitDy=0;" edge="1" parent="1" source="MyVD6oUSzkz2Ww6DniEh-106">
          <mxGeometry width="50" height="50" relative="1" as="geometry">
            <mxPoint x="1000" y="346" as="sourcePoint" />
            <mxPoint x="970" y="346" as="targetPoint" />
          </mxGeometry>
        </mxCell>
        <mxCell id="MyVD6oUSzkz2Ww6DniEh-106" value="reg_we" style="text;html=1;strokeColor=none;fillColor=none;align=center;verticalAlign=middle;whiteSpace=wrap;rounded=0;" vertex="1" parent="1">
          <mxGeometry x="1000" y="339" width="60" height="14" as="geometry" />
        </mxCell>
        <mxCell id="MyVD6oUSzkz2Ww6DniEh-107" value="" style="shape=trapezoid;perimeter=trapezoidPerimeter;whiteSpace=wrap;html=1;fixedSize=1;rotation=-90;" vertex="1" parent="1">
          <mxGeometry x="620" y="338" width="82.5" height="29" as="geometry" />
        </mxCell>
        <mxCell id="MyVD6oUSzkz2Ww6DniEh-109" value="" style="shape=flexArrow;endArrow=none;startArrow=block;html=1;rounded=0;entryX=-0.001;entryY=0.737;entryDx=0;entryDy=0;exitX=0.5;exitY=1;exitDx=0;exitDy=0;comic=0;jiggle=0;enumerate=0;backgroundOutline=0;metaEdit=0;fixDash=0;deletable=1;snapToPoint=0;startFill=0;entryPerimeter=0;endFill=0;" edge="1" parent="1" source="MyVD6oUSzkz2Ww6DniEh-107" target="MyVD6oUSzkz2Ww6DniEh-2">
          <mxGeometry width="100" height="100" relative="1" as="geometry">
            <mxPoint x="588" y="352" as="sourcePoint" />
            <mxPoint x="730" y="353" as="targetPoint" />
          </mxGeometry>
        </mxCell>
        <mxCell id="MyVD6oUSzkz2Ww6DniEh-110" value="" style="shape=flexArrow;endArrow=none;startArrow=block;html=1;rounded=0;entryX=0.5;entryY=0;entryDx=0;entryDy=0;exitX=1;exitY=0.329;exitDx=0;exitDy=0;comic=0;jiggle=0;enumerate=0;backgroundOutline=0;metaEdit=0;fixDash=0;deletable=1;snapToPoint=0;startFill=0;endFill=0;exitPerimeter=0;" edge="1" parent="1" source="MyVD6oUSzkz2Ww6DniEh-8" target="MyVD6oUSzkz2Ww6DniEh-107">
          <mxGeometry width="100" height="100" relative="1" as="geometry">
            <mxPoint x="560" y="356" as="sourcePoint" />
            <mxPoint x="624" y="355" as="targetPoint" />
          </mxGeometry>
        </mxCell>
        <mxCell id="MyVD6oUSzkz2Ww6DniEh-111" value="" style="endArrow=none;html=1;rounded=1;arcSize=10;jumpSize=2;endSize=2;targetPerimeterSpacing=3;strokeColor=default;comic=0;jiggle=0;enumerate=0;backgroundOutline=0;metaEdit=0;fixDash=0;deletable=1;snapToPoint=0;" edge="1" parent="1">
          <mxGeometry width="50" height="50" relative="1" as="geometry">
            <mxPoint x="703" y="362" as="sourcePoint" />
            <mxPoint x="723" y="342" as="targetPoint" />
          </mxGeometry>
        </mxCell>
        <mxCell id="MyVD6oUSzkz2Ww6DniEh-112" value="16-bits" style="text;html=1;strokeColor=none;fillColor=none;align=center;verticalAlign=middle;whiteSpace=wrap;rounded=0;comic=0;jiggle=0;enumerate=0;backgroundOutline=0;metaEdit=0;fixDash=0;deletable=1;snapToPoint=0;" vertex="1" parent="1">
          <mxGeometry x="693" y="362" width="39" height="20" as="geometry" />
        </mxCell>
        <mxCell id="MyVD6oUSzkz2Ww6DniEh-113" value="" style="endArrow=none;html=1;rounded=1;arcSize=10;jumpSize=2;endSize=2;targetPerimeterSpacing=3;strokeColor=default;comic=0;jiggle=0;enumerate=0;backgroundOutline=0;metaEdit=0;fixDash=0;deletable=1;snapToPoint=0;" edge="1" parent="1">
          <mxGeometry width="50" height="50" relative="1" as="geometry">
            <mxPoint x="618" y="362" as="sourcePoint" />
            <mxPoint x="638" y="342" as="targetPoint" />
          </mxGeometry>
        </mxCell>
        <mxCell id="MyVD6oUSzkz2Ww6DniEh-114" value="16-bits" style="text;html=1;strokeColor=none;fillColor=none;align=center;verticalAlign=middle;whiteSpace=wrap;rounded=0;comic=0;jiggle=0;enumerate=0;backgroundOutline=0;metaEdit=0;fixDash=0;deletable=1;snapToPoint=0;" vertex="1" parent="1">
          <mxGeometry x="608" y="362" width="39" height="20" as="geometry" />
        </mxCell>
        <mxCell id="MyVD6oUSzkz2Ww6DniEh-115" value="" style="shape=trapezoid;perimeter=trapezoidPerimeter;whiteSpace=wrap;html=1;fixedSize=1;rotation=-90;" vertex="1" parent="1">
          <mxGeometry x="620" y="554" width="82.5" height="29" as="geometry" />
        </mxCell>
        <mxCell id="MyVD6oUSzkz2Ww6DniEh-118" value="" style="endArrow=none;html=1;rounded=1;arcSize=10;jumpSize=2;endSize=2;targetPerimeterSpacing=3;strokeColor=default;comic=0;jiggle=0;enumerate=0;backgroundOutline=0;metaEdit=0;fixDash=0;deletable=1;snapToPoint=0;" edge="1" parent="1">
          <mxGeometry width="50" height="50" relative="1" as="geometry">
            <mxPoint x="703" y="578" as="sourcePoint" />
            <mxPoint x="723" y="558" as="targetPoint" />
          </mxGeometry>
        </mxCell>
        <mxCell id="MyVD6oUSzkz2Ww6DniEh-119" value="8-bits" style="text;html=1;strokeColor=none;fillColor=none;align=center;verticalAlign=middle;whiteSpace=wrap;rounded=0;comic=0;jiggle=0;enumerate=0;backgroundOutline=0;metaEdit=0;fixDash=0;deletable=1;snapToPoint=0;" vertex="1" parent="1">
          <mxGeometry x="693" y="578" width="39" height="20" as="geometry" />
        </mxCell>
        <mxCell id="MyVD6oUSzkz2Ww6DniEh-120" value="" style="endArrow=none;html=1;rounded=1;arcSize=10;jumpSize=2;endSize=2;targetPerimeterSpacing=3;strokeColor=default;comic=0;jiggle=0;enumerate=0;backgroundOutline=0;metaEdit=0;fixDash=0;deletable=1;snapToPoint=0;" edge="1" parent="1">
          <mxGeometry width="50" height="50" relative="1" as="geometry">
            <mxPoint x="618" y="578" as="sourcePoint" />
            <mxPoint x="638" y="558" as="targetPoint" />
          </mxGeometry>
        </mxCell>
        <mxCell id="MyVD6oUSzkz2Ww6DniEh-121" value="8-bits" style="text;html=1;strokeColor=none;fillColor=none;align=center;verticalAlign=middle;whiteSpace=wrap;rounded=0;comic=0;jiggle=0;enumerate=0;backgroundOutline=0;metaEdit=0;fixDash=0;deletable=1;snapToPoint=0;" vertex="1" parent="1">
          <mxGeometry x="608" y="578" width="39" height="20" as="geometry" />
        </mxCell>
        <mxCell id="MyVD6oUSzkz2Ww6DniEh-122" value="" style="shape=flexArrow;endArrow=none;startArrow=block;html=1;rounded=0;exitX=0.5;exitY=1;exitDx=0;exitDy=0;startWidth=10.546623794212218;startSize=5.90096463022508;endWidth=10.546623794212218;endSize=5.90096463022508;width=6.4;fillColor=none;entryX=0;entryY=0.75;entryDx=0;entryDy=0;comic=0;jiggle=0;enumerate=0;backgroundOutline=0;metaEdit=0;fixDash=0;deletable=1;snapToPoint=0;endFill=0;startFill=0;" edge="1" parent="1" source="MyVD6oUSzkz2Ww6DniEh-115">
          <mxGeometry width="100" height="100" relative="1" as="geometry">
            <mxPoint x="594" y="524" as="sourcePoint" />
            <mxPoint x="732.9999999999998" y="568.25" as="targetPoint" />
          </mxGeometry>
        </mxCell>
        <mxCell id="MyVD6oUSzkz2Ww6DniEh-123" value="" style="shape=flexArrow;endArrow=none;startArrow=block;html=1;rounded=0;exitX=0.5;exitY=1;exitDx=0;exitDy=0;startWidth=10.546623794212218;startSize=5.90096463022508;endWidth=10.546623794212218;endSize=5.90096463022508;width=6.4;fillColor=none;entryX=0.5;entryY=0;entryDx=0;entryDy=0;comic=0;jiggle=0;enumerate=0;backgroundOutline=0;metaEdit=0;fixDash=0;deletable=1;snapToPoint=0;endFill=0;startFill=0;" edge="1" parent="1" target="MyVD6oUSzkz2Ww6DniEh-115">
          <mxGeometry width="100" height="100" relative="1" as="geometry">
            <mxPoint x="591" y="569" as="sourcePoint" />
            <mxPoint x="648" y="568" as="targetPoint" />
          </mxGeometry>
        </mxCell>
        <mxCell id="MyVD6oUSzkz2Ww6DniEh-124" value="" style="endArrow=classic;html=1;rounded=0;comic=0;jiggle=0;enumerate=0;backgroundOutline=0;metaEdit=0;fixDash=0;deletable=1;snapToPoint=0;entryX=0;entryY=0.5;entryDx=0;entryDy=0;exitX=0.5;exitY=0;exitDx=0;exitDy=0;" edge="1" parent="1" source="MyVD6oUSzkz2Ww6DniEh-125" target="MyVD6oUSzkz2Ww6DniEh-107">
          <mxGeometry width="50" height="50" relative="1" as="geometry">
            <mxPoint x="661" y="408" as="sourcePoint" />
            <mxPoint x="641" y="408" as="targetPoint" />
          </mxGeometry>
        </mxCell>
        <mxCell id="MyVD6oUSzkz2Ww6DniEh-125" value="REG_OUT" style="text;html=1;strokeColor=none;fillColor=none;align=center;verticalAlign=middle;whiteSpace=wrap;rounded=0;" vertex="1" parent="1">
          <mxGeometry x="631.25" y="408" width="60" height="14" as="geometry" />
        </mxCell>
        <mxCell id="MyVD6oUSzkz2Ww6DniEh-126" value="" style="endArrow=classic;html=1;rounded=0;comic=0;jiggle=0;enumerate=0;backgroundOutline=0;metaEdit=0;fixDash=0;deletable=1;snapToPoint=0;entryX=0;entryY=0.5;entryDx=0;entryDy=0;exitX=0.5;exitY=0;exitDx=0;exitDy=0;" edge="1" parent="1" source="MyVD6oUSzkz2Ww6DniEh-127" target="MyVD6oUSzkz2Ww6DniEh-115">
          <mxGeometry width="50" height="50" relative="1" as="geometry">
            <mxPoint x="661" y="625" as="sourcePoint" />
            <mxPoint x="661" y="601" as="targetPoint" />
          </mxGeometry>
        </mxCell>
        <mxCell id="MyVD6oUSzkz2Ww6DniEh-127" value="ALU_OUT" style="text;html=1;strokeColor=none;fillColor=none;align=center;verticalAlign=middle;whiteSpace=wrap;rounded=0;" vertex="1" parent="1">
          <mxGeometry x="631" y="625" width="60" height="14" as="geometry" />
        </mxCell>
        <mxCell id="MyVD6oUSzkz2Ww6DniEh-140" value="" style="endArrow=classic;html=1;rounded=0;comic=0;jiggle=0;enumerate=0;backgroundOutline=0;metaEdit=0;fixDash=0;deletable=1;snapToPoint=0;exitX=0;exitY=0.5;exitDx=0;exitDy=0;" edge="1" parent="1" source="MyVD6oUSzkz2Ww6DniEh-141">
          <mxGeometry width="50" height="50" relative="1" as="geometry">
            <mxPoint x="1000.5" y="467" as="sourcePoint" />
            <mxPoint x="970.5" y="467" as="targetPoint" />
          </mxGeometry>
        </mxCell>
        <mxCell id="MyVD6oUSzkz2Ww6DniEh-141" value="CLK_sys" style="text;html=1;strokeColor=none;fillColor=none;align=center;verticalAlign=middle;whiteSpace=wrap;rounded=0;" vertex="1" parent="1">
          <mxGeometry x="1000.5" y="460" width="60" height="14" as="geometry" />
        </mxCell>
        <mxCell id="MyVD6oUSzkz2Ww6DniEh-142" value="" style="endArrow=classic;html=1;rounded=0;comic=0;jiggle=0;enumerate=0;backgroundOutline=0;metaEdit=0;fixDash=0;deletable=1;snapToPoint=0;exitX=0;exitY=0.5;exitDx=0;exitDy=0;" edge="1" parent="1" source="MyVD6oUSzkz2Ww6DniEh-143">
          <mxGeometry width="50" height="50" relative="1" as="geometry">
            <mxPoint x="1000.5" y="485" as="sourcePoint" />
            <mxPoint x="970.5" y="485" as="targetPoint" />
          </mxGeometry>
        </mxCell>
        <mxCell id="MyVD6oUSzkz2Ww6DniEh-143" value="&lt;br&gt;&lt;u&gt;&amp;nbsp; &amp;nbsp; &amp;nbsp; &amp;nbsp; &amp;nbsp; &amp;nbsp;&lt;/u&gt;&lt;br&gt;RESET&lt;br&gt;&lt;br&gt;&lt;br&gt;" style="text;html=1;strokeColor=none;fillColor=none;align=center;verticalAlign=middle;whiteSpace=wrap;rounded=0;horizontal=1;labelPosition=center;verticalLabelPosition=middle;" vertex="1" parent="1">
          <mxGeometry x="1000.5" y="477" width="60" height="16" as="geometry" />
        </mxCell>
        <mxCell id="MyVD6oUSzkz2Ww6DniEh-144" value="" style="endArrow=classic;html=1;rounded=0;comic=0;jiggle=0;enumerate=0;backgroundOutline=0;metaEdit=0;fixDash=0;deletable=1;snapToPoint=0;exitX=0;exitY=0.5;exitDx=0;exitDy=0;" edge="1" parent="1" source="MyVD6oUSzkz2Ww6DniEh-145">
          <mxGeometry width="50" height="50" relative="1" as="geometry">
            <mxPoint x="1000.5" y="501" as="sourcePoint" />
            <mxPoint x="970.5" y="501" as="targetPoint" />
          </mxGeometry>
        </mxCell>
        <mxCell id="MyVD6oUSzkz2Ww6DniEh-145" value="Acc_store" style="text;html=1;strokeColor=none;fillColor=none;align=center;verticalAlign=middle;whiteSpace=wrap;rounded=0;" vertex="1" parent="1">
          <mxGeometry x="1000.5" y="495" width="60" height="13" as="geometry" />
        </mxCell>
        <mxCell id="MyVD6oUSzkz2Ww6DniEh-146" value="" style="endArrow=classic;html=1;rounded=0;comic=0;jiggle=0;enumerate=0;backgroundOutline=0;metaEdit=0;fixDash=0;deletable=1;snapToPoint=0;exitX=0;exitY=0.5;exitDx=0;exitDy=0;" edge="1" parent="1" source="MyVD6oUSzkz2Ww6DniEh-147">
          <mxGeometry width="50" height="50" relative="1" as="geometry">
            <mxPoint x="1000.5" y="518" as="sourcePoint" />
            <mxPoint x="970.5" y="518" as="targetPoint" />
          </mxGeometry>
        </mxCell>
        <mxCell id="MyVD6oUSzkz2Ww6DniEh-147" value="Acc_restore" style="text;html=1;strokeColor=none;fillColor=none;align=center;verticalAlign=middle;whiteSpace=wrap;rounded=0;" vertex="1" parent="1">
          <mxGeometry x="1000.5" y="512" width="69.5" height="13" as="geometry" />
        </mxCell>
        <mxCell id="MyVD6oUSzkz2Ww6DniEh-148" value="" style="endArrow=classic;html=1;rounded=0;comic=0;jiggle=0;enumerate=0;backgroundOutline=0;metaEdit=0;fixDash=0;deletable=1;snapToPoint=0;exitX=0;exitY=0.5;exitDx=0;exitDy=0;" edge="1" parent="1" source="MyVD6oUSzkz2Ww6DniEh-149">
          <mxGeometry width="50" height="50" relative="1" as="geometry">
            <mxPoint x="1000.5" y="534" as="sourcePoint" />
            <mxPoint x="970.5" y="534" as="targetPoint" />
          </mxGeometry>
        </mxCell>
        <mxCell id="MyVD6oUSzkz2Ww6DniEh-149" value="Acc_we" style="text;html=1;strokeColor=none;fillColor=none;align=center;verticalAlign=middle;whiteSpace=wrap;rounded=0;" vertex="1" parent="1">
          <mxGeometry x="1000.5" y="527" width="60" height="15" as="geometry" />
        </mxCell>
        <mxCell id="MyVD6oUSzkz2Ww6DniEh-150" value="" style="endArrow=classic;html=1;rounded=0;comic=0;jiggle=0;enumerate=0;backgroundOutline=0;metaEdit=0;fixDash=0;deletable=1;snapToPoint=0;exitX=0;exitY=0.5;exitDx=0;exitDy=0;" edge="1" parent="1" source="MyVD6oUSzkz2Ww6DniEh-151">
          <mxGeometry width="50" height="50" relative="1" as="geometry">
            <mxPoint x="1000.5" y="551" as="sourcePoint" />
            <mxPoint x="970.5" y="551" as="targetPoint" />
          </mxGeometry>
        </mxCell>
        <mxCell id="MyVD6oUSzkz2Ww6DniEh-151" value="TMP_we" style="text;html=1;strokeColor=none;fillColor=none;align=center;verticalAlign=middle;whiteSpace=wrap;rounded=0;" vertex="1" parent="1">
          <mxGeometry x="1000.5" y="544" width="60" height="14" as="geometry" />
        </mxCell>
        <mxCell id="MyVD6oUSzkz2Ww6DniEh-152" value="" style="endArrow=classic;html=1;rounded=0;comic=0;jiggle=0;enumerate=0;backgroundOutline=0;metaEdit=0;fixDash=0;deletable=1;snapToPoint=0;exitX=0;exitY=0.5;exitDx=0;exitDy=0;" edge="1" parent="1" source="MyVD6oUSzkz2Ww6DniEh-153">
          <mxGeometry width="50" height="50" relative="1" as="geometry">
            <mxPoint x="1000.5" y="568" as="sourcePoint" />
            <mxPoint x="970.5" y="568" as="targetPoint" />
          </mxGeometry>
        </mxCell>
        <mxCell id="MyVD6oUSzkz2Ww6DniEh-153" value="Flags_we" style="text;html=1;strokeColor=none;fillColor=none;align=center;verticalAlign=middle;whiteSpace=wrap;rounded=0;" vertex="1" parent="1">
          <mxGeometry x="1000.5" y="561" width="60" height="14" as="geometry" />
        </mxCell>
        <mxCell id="MyVD6oUSzkz2Ww6DniEh-154" value="" style="endArrow=classic;html=1;rounded=0;comic=0;jiggle=0;enumerate=0;backgroundOutline=0;metaEdit=0;fixDash=0;deletable=1;snapToPoint=0;exitX=0;exitY=0.5;exitDx=0;exitDy=0;" edge="1" parent="1" source="MyVD6oUSzkz2Ww6DniEh-155">
          <mxGeometry width="50" height="50" relative="1" as="geometry">
            <mxPoint x="1000.5" y="585" as="sourcePoint" />
            <mxPoint x="970.5" y="585" as="targetPoint" />
          </mxGeometry>
        </mxCell>
        <mxCell id="MyVD6oUSzkz2Ww6DniEh-155" value="cs" style="text;html=1;strokeColor=none;fillColor=none;align=center;verticalAlign=middle;whiteSpace=wrap;rounded=0;" vertex="1" parent="1">
          <mxGeometry x="1000.5" y="578" width="60" height="14" as="geometry" />
        </mxCell>
        <mxCell id="MyVD6oUSzkz2Ww6DniEh-156" value="" style="endArrow=classic;html=1;rounded=0;comic=0;jiggle=0;enumerate=0;backgroundOutline=0;metaEdit=0;fixDash=0;deletable=1;snapToPoint=0;exitX=0;exitY=0.5;exitDx=0;exitDy=0;strokeWidth=2;" edge="1" parent="1" source="MyVD6oUSzkz2Ww6DniEh-157">
          <mxGeometry width="50" height="50" relative="1" as="geometry">
            <mxPoint x="1000.5" y="608" as="sourcePoint" />
            <mxPoint x="970.5" y="608" as="targetPoint" />
          </mxGeometry>
        </mxCell>
        <mxCell id="MyVD6oUSzkz2Ww6DniEh-157" value="Op" style="text;html=1;strokeColor=none;fillColor=none;align=center;verticalAlign=middle;whiteSpace=wrap;rounded=0;" vertex="1" parent="1">
          <mxGeometry x="1000.5" y="601" width="60" height="14" as="geometry" />
        </mxCell>
        <mxCell id="MyVD6oUSzkz2Ww6DniEh-158" value="" style="endArrow=none;html=1;rounded=0;" edge="1" parent="1">
          <mxGeometry width="50" height="50" relative="1" as="geometry">
            <mxPoint x="987" y="614" as="sourcePoint" />
            <mxPoint x="996" y="604" as="targetPoint" />
          </mxGeometry>
        </mxCell>
        <mxCell id="MyVD6oUSzkz2Ww6DniEh-159" value="&lt;font style=&quot;font-size: 9px;&quot;&gt;5-bits&lt;/font&gt;" style="text;html=1;strokeColor=none;fillColor=none;align=center;verticalAlign=middle;whiteSpace=wrap;rounded=0;comic=0;jiggle=0;enumerate=0;backgroundOutline=0;metaEdit=0;fixDash=0;deletable=1;snapToPoint=0;" vertex="1" parent="1">
          <mxGeometry x="978" y="615" width="27" height="12" as="geometry" />
        </mxCell>
        <mxCell id="MyVD6oUSzkz2Ww6DniEh-170" value="" style="shape=trapezoid;perimeter=trapezoidPerimeter;whiteSpace=wrap;html=1;fixedSize=1;rotation=-90;" vertex="1" parent="1">
          <mxGeometry x="620" y="667" width="82.5" height="29" as="geometry" />
        </mxCell>
        <mxCell id="MyVD6oUSzkz2Ww6DniEh-171" value="" style="endArrow=none;html=1;rounded=1;arcSize=10;jumpSize=2;endSize=2;targetPerimeterSpacing=3;strokeColor=default;comic=0;jiggle=0;enumerate=0;backgroundOutline=0;metaEdit=0;fixDash=0;deletable=1;snapToPoint=0;" edge="1" parent="1">
          <mxGeometry width="50" height="50" relative="1" as="geometry">
            <mxPoint x="618" y="691" as="sourcePoint" />
            <mxPoint x="638" y="671" as="targetPoint" />
          </mxGeometry>
        </mxCell>
        <mxCell id="MyVD6oUSzkz2Ww6DniEh-172" value="8-bits" style="text;html=1;strokeColor=none;fillColor=none;align=center;verticalAlign=middle;whiteSpace=wrap;rounded=0;comic=0;jiggle=0;enumerate=0;backgroundOutline=0;metaEdit=0;fixDash=0;deletable=1;snapToPoint=0;" vertex="1" parent="1">
          <mxGeometry x="608" y="691" width="39" height="20" as="geometry" />
        </mxCell>
        <mxCell id="MyVD6oUSzkz2Ww6DniEh-173" value="" style="shape=flexArrow;endArrow=none;startArrow=block;html=1;rounded=0;exitX=0.5;exitY=1;exitDx=0;exitDy=0;startWidth=10.546623794212218;startSize=5.90096463022508;endWidth=10.546623794212218;endSize=5.90096463022508;width=6.4;fillColor=none;entryX=0.5;entryY=0;entryDx=0;entryDy=0;comic=0;jiggle=0;enumerate=0;backgroundOutline=0;metaEdit=0;fixDash=0;deletable=1;snapToPoint=0;endFill=0;startFill=0;" edge="1" parent="1" target="MyVD6oUSzkz2Ww6DniEh-170">
          <mxGeometry width="100" height="100" relative="1" as="geometry">
            <mxPoint x="591" y="682" as="sourcePoint" />
            <mxPoint x="648" y="681" as="targetPoint" />
          </mxGeometry>
        </mxCell>
        <mxCell id="MyVD6oUSzkz2Ww6DniEh-174" value="" style="endArrow=classic;html=1;rounded=0;comic=0;jiggle=0;enumerate=0;backgroundOutline=0;metaEdit=0;fixDash=0;deletable=1;snapToPoint=0;entryX=0;entryY=0.5;entryDx=0;entryDy=0;exitX=0.5;exitY=0;exitDx=0;exitDy=0;" edge="1" parent="1" source="MyVD6oUSzkz2Ww6DniEh-175" target="MyVD6oUSzkz2Ww6DniEh-170">
          <mxGeometry width="50" height="50" relative="1" as="geometry">
            <mxPoint x="661" y="738" as="sourcePoint" />
            <mxPoint x="661" y="714" as="targetPoint" />
          </mxGeometry>
        </mxCell>
        <mxCell id="MyVD6oUSzkz2Ww6DniEh-175" value="FLAGS_OUT" style="text;html=1;strokeColor=none;fillColor=none;align=center;verticalAlign=middle;whiteSpace=wrap;rounded=0;" vertex="1" parent="1">
          <mxGeometry x="631" y="738" width="60" height="14" as="geometry" />
        </mxCell>
        <mxCell id="MyVD6oUSzkz2Ww6DniEh-176" value="" style="shape=flexArrow;endArrow=none;startArrow=block;html=1;rounded=0;exitX=0.5;exitY=1;exitDx=0;exitDy=0;startWidth=10.546623794212218;startSize=5.90096463022508;endWidth=10.546623794212218;endSize=5.90096463022508;width=6.4;fillColor=none;entryX=0.5;entryY=1;entryDx=0;entryDy=0;comic=0;jiggle=0;enumerate=0;backgroundOutline=0;metaEdit=0;fixDash=0;deletable=1;snapToPoint=0;endFill=0;startFill=0;edgeStyle=orthogonalEdgeStyle;" edge="1" parent="1" target="MyVD6oUSzkz2Ww6DniEh-3">
          <mxGeometry width="100" height="100" relative="1" as="geometry">
            <mxPoint x="676" y="681.23" as="sourcePoint" />
            <mxPoint x="732" y="681.23" as="targetPoint" />
          </mxGeometry>
        </mxCell>
        <mxCell id="MyVD6oUSzkz2Ww6DniEh-177" value="" style="endArrow=none;html=1;rounded=1;arcSize=10;jumpSize=2;endSize=2;targetPerimeterSpacing=3;strokeColor=default;comic=0;jiggle=0;enumerate=0;backgroundOutline=0;metaEdit=0;fixDash=0;deletable=1;snapToPoint=0;" edge="1" parent="1">
          <mxGeometry width="50" height="50" relative="1" as="geometry">
            <mxPoint x="760" y="691" as="sourcePoint" />
            <mxPoint x="780" y="671" as="targetPoint" />
          </mxGeometry>
        </mxCell>
        <mxCell id="MyVD6oUSzkz2Ww6DniEh-178" value="8-bits" style="text;html=1;strokeColor=none;fillColor=none;align=center;verticalAlign=middle;whiteSpace=wrap;rounded=0;comic=0;jiggle=0;enumerate=0;backgroundOutline=0;metaEdit=0;fixDash=0;deletable=1;snapToPoint=0;" vertex="1" parent="1">
          <mxGeometry x="750" y="691" width="39" height="20" as="geometry" />
        </mxCell>
        <mxCell id="MyVD6oUSzkz2Ww6DniEh-191" value="" style="shape=flexArrow;endArrow=none;startArrow=block;html=1;rounded=0;exitX=1;exitY=0.5;exitDx=0;exitDy=0;startWidth=10.546623794212218;startSize=5.90096463022508;endWidth=10.546623794212218;endSize=5.90096463022508;width=6.4;fillColor=none;comic=0;jiggle=0;enumerate=0;backgroundOutline=0;metaEdit=0;fixDash=0;deletable=1;snapToPoint=0;endFill=0;startFill=0;entryX=0;entryY=0.819;entryDx=0;entryDy=0;entryPerimeter=0;" edge="1" parent="1" source="MyVD6oUSzkz2Ww6DniEh-6" target="MyVD6oUSzkz2Ww6DniEh-8">
          <mxGeometry width="100" height="100" relative="1" as="geometry">
            <mxPoint x="409.80500000000006" y="631.4559999999999" as="sourcePoint" />
            <mxPoint x="471.75" y="632.5" as="targetPoint" />
          </mxGeometry>
        </mxCell>
        <mxCell id="MyVD6oUSzkz2Ww6DniEh-197" value="" style="endArrow=none;html=1;rounded=1;arcSize=10;jumpSize=2;endSize=2;targetPerimeterSpacing=3;strokeColor=default;comic=0;jiggle=0;enumerate=0;backgroundOutline=0;metaEdit=0;fixDash=0;deletable=1;snapToPoint=0;" edge="1" parent="1">
          <mxGeometry width="50" height="50" relative="1" as="geometry">
            <mxPoint x="479" y="643" as="sourcePoint" />
            <mxPoint x="499" y="623" as="targetPoint" />
          </mxGeometry>
        </mxCell>
        <mxCell id="MyVD6oUSzkz2Ww6DniEh-198" value="8-bits" style="text;html=1;strokeColor=none;fillColor=none;align=center;verticalAlign=middle;whiteSpace=wrap;rounded=0;comic=0;jiggle=0;enumerate=0;backgroundOutline=0;metaEdit=0;fixDash=0;deletable=1;snapToPoint=0;" vertex="1" parent="1">
          <mxGeometry x="470" y="641" width="39" height="20" as="geometry" />
        </mxCell>
        <mxCell id="MyVD6oUSzkz2Ww6DniEh-199" value="" style="shape=flexArrow;endArrow=none;startArrow=block;html=1;rounded=0;exitX=0.175;exitY=-0.003;exitDx=0;exitDy=0;startWidth=10.546623794212218;startSize=5.90096463022508;endWidth=10.546623794212218;endSize=5.90096463022508;width=6.4;fillColor=none;comic=0;jiggle=0;enumerate=0;backgroundOutline=0;metaEdit=0;fixDash=0;deletable=1;snapToPoint=0;endFill=0;startFill=0;entryX=0.5;entryY=1;entryDx=0;entryDy=0;exitPerimeter=0;" edge="1" parent="1" source="MyVD6oUSzkz2Ww6DniEh-1" target="MyVD6oUSzkz2Ww6DniEh-6">
          <mxGeometry width="100" height="100" relative="1" as="geometry">
            <mxPoint x="287" y="731" as="sourcePoint" />
            <mxPoint x="429" y="730" as="targetPoint" />
          </mxGeometry>
        </mxCell>
        <mxCell id="MyVD6oUSzkz2Ww6DniEh-201" value="8-bits" style="text;html=1;strokeColor=none;fillColor=none;align=center;verticalAlign=middle;whiteSpace=wrap;rounded=0;comic=0;jiggle=0;enumerate=0;backgroundOutline=0;metaEdit=0;fixDash=0;deletable=1;snapToPoint=0;" vertex="1" parent="1">
          <mxGeometry x="335" y="696" width="39" height="20" as="geometry" />
        </mxCell>
        <mxCell id="MyVD6oUSzkz2Ww6DniEh-210" value="" style="group" vertex="1" connectable="0" parent="1">
          <mxGeometry x="247" y="424" width="162" height="133" as="geometry" />
        </mxCell>
        <mxCell id="MyVD6oUSzkz2Ww6DniEh-5" value="&lt;h1&gt;&lt;b&gt;&lt;font style=&quot;font-size: 22px;&quot;&gt;Output&amp;nbsp;&lt;/font&gt;&lt;/b&gt;&lt;/h1&gt;&lt;div&gt;&lt;b&gt;&lt;font style=&quot;font-size: 22px;&quot;&gt;&lt;br&gt;&lt;/font&gt;&lt;/b&gt;&lt;/div&gt;&lt;div&gt;&lt;b&gt;&lt;font style=&quot;font-size: 22px;&quot;&gt;&lt;br&gt;&lt;/font&gt;&lt;/b&gt;&lt;/div&gt;&lt;div&gt;&lt;b&gt;&lt;font style=&quot;font-size: 22px;&quot;&gt;&lt;br&gt;&lt;/font&gt;&lt;/b&gt;&lt;/div&gt;&lt;div&gt;&lt;br&gt;&lt;/div&gt;" style="rounded=0;whiteSpace=wrap;html=1;verticalAlign=middle;comic=0;jiggle=0;enumerate=0;backgroundOutline=0;metaEdit=0;fixDash=0;deletable=1;snapToPoint=0;labelPosition=center;verticalLabelPosition=middle;align=center;" vertex="1" parent="MyVD6oUSzkz2Ww6DniEh-210">
          <mxGeometry width="162" height="133" as="geometry" />
        </mxCell>
        <mxCell id="MyVD6oUSzkz2Ww6DniEh-37" value="&lt;h2&gt;Address_L&lt;/h2&gt;" style="rounded=0;whiteSpace=wrap;html=1;fillColor=#fff2cc;strokeColor=#d6b656;comic=0;jiggle=0;enumerate=0;backgroundOutline=0;metaEdit=0;fixDash=0;deletable=1;snapToPoint=0;" vertex="1" parent="MyVD6oUSzkz2Ww6DniEh-210">
          <mxGeometry x="13.398496240601505" y="47.620000000000005" width="135.0812030075188" height="21.38" as="geometry" />
        </mxCell>
        <mxCell id="MyVD6oUSzkz2Ww6DniEh-38" value="&lt;h2&gt;Data&lt;/h2&gt;" style="rounded=0;whiteSpace=wrap;html=1;fillColor=#fff2cc;strokeColor=#d6b656;comic=0;jiggle=0;enumerate=0;backgroundOutline=0;metaEdit=0;fixDash=0;deletable=1;snapToPoint=0;" vertex="1" parent="MyVD6oUSzkz2Ww6DniEh-210">
          <mxGeometry x="13.398496240601505" y="104" width="135.67804511278197" height="20" as="geometry" />
        </mxCell>
        <mxCell id="MyVD6oUSzkz2Ww6DniEh-209" value="&lt;h2&gt;Address_H&lt;/h2&gt;" style="rounded=0;whiteSpace=wrap;html=1;fillColor=#fff2cc;strokeColor=#d6b656;comic=0;jiggle=0;enumerate=0;backgroundOutline=0;metaEdit=0;fixDash=0;deletable=1;snapToPoint=0;" vertex="1" parent="MyVD6oUSzkz2Ww6DniEh-210">
          <mxGeometry x="13.386315789473695" y="75" width="135.0812030075188" height="21.38" as="geometry" />
        </mxCell>
        <mxCell id="MyVD6oUSzkz2Ww6DniEh-211" value="" style="endArrow=none;html=1;rounded=1;arcSize=10;jumpSize=2;endSize=2;targetPerimeterSpacing=3;strokeColor=default;comic=0;jiggle=0;enumerate=0;backgroundOutline=0;metaEdit=0;fixDash=0;deletable=1;snapToPoint=0;" edge="1" parent="1">
          <mxGeometry width="50" height="50" relative="1" as="geometry">
            <mxPoint x="318.5" y="716" as="sourcePoint" />
            <mxPoint x="338.5" y="696" as="targetPoint" />
          </mxGeometry>
        </mxCell>
        <mxCell id="MyVD6oUSzkz2Ww6DniEh-212" value="" style="endArrow=classic;html=1;rounded=0;comic=0;jiggle=0;enumerate=0;backgroundOutline=0;metaEdit=0;fixDash=0;deletable=1;snapToPoint=0;exitX=0;exitY=0.5;exitDx=0;exitDy=0;" edge="1" parent="1" source="MyVD6oUSzkz2Ww6DniEh-213">
          <mxGeometry width="50" height="50" relative="1" as="geometry">
            <mxPoint x="277" y="432" as="sourcePoint" />
            <mxPoint x="247" y="432" as="targetPoint" />
          </mxGeometry>
        </mxCell>
        <mxCell id="MyVD6oUSzkz2Ww6DniEh-213" value="CLK_sys" style="text;html=1;strokeColor=none;fillColor=none;align=center;verticalAlign=middle;whiteSpace=wrap;rounded=0;flipH=1;flipV=0;direction=west;" vertex="1" parent="1">
          <mxGeometry x="161" y="425" width="60" height="14" as="geometry" />
        </mxCell>
        <mxCell id="MyVD6oUSzkz2Ww6DniEh-214" value="" style="endArrow=classic;html=1;rounded=0;comic=0;jiggle=0;enumerate=0;backgroundOutline=0;metaEdit=0;fixDash=0;deletable=1;snapToPoint=0;exitX=0;exitY=0.5;exitDx=0;exitDy=0;" edge="1" parent="1" source="MyVD6oUSzkz2Ww6DniEh-215">
          <mxGeometry width="50" height="50" relative="1" as="geometry">
            <mxPoint x="277" y="450" as="sourcePoint" />
            <mxPoint x="247" y="450" as="targetPoint" />
          </mxGeometry>
        </mxCell>
        <mxCell id="MyVD6oUSzkz2Ww6DniEh-215" value="&lt;br&gt;&lt;u&gt;&amp;nbsp; &amp;nbsp; &amp;nbsp; &amp;nbsp; &amp;nbsp; &amp;nbsp;&lt;/u&gt;&lt;br&gt;RESET&lt;br&gt;&lt;br&gt;&lt;br&gt;" style="text;html=1;strokeColor=none;fillColor=none;align=center;verticalAlign=middle;whiteSpace=wrap;rounded=0;horizontal=1;labelPosition=center;verticalLabelPosition=middle;flipH=1;flipV=0;direction=west;" vertex="1" parent="1">
          <mxGeometry x="161" y="442" width="60" height="16" as="geometry" />
        </mxCell>
        <mxCell id="MyVD6oUSzkz2Ww6DniEh-216" value="" style="endArrow=classic;html=1;rounded=0;comic=0;jiggle=0;enumerate=0;backgroundOutline=0;metaEdit=0;fixDash=0;deletable=1;snapToPoint=0;exitX=0;exitY=0.5;exitDx=0;exitDy=0;" edge="1" parent="1" source="MyVD6oUSzkz2Ww6DniEh-217">
          <mxGeometry width="50" height="50" relative="1" as="geometry">
            <mxPoint x="277" y="468.5" as="sourcePoint" />
            <mxPoint x="247" y="468.5" as="targetPoint" />
          </mxGeometry>
        </mxCell>
        <mxCell id="MyVD6oUSzkz2Ww6DniEh-217" value="out_reg_we" style="text;html=1;strokeColor=none;fillColor=none;align=center;verticalAlign=middle;whiteSpace=wrap;rounded=0;flipH=1;flipV=0;direction=west;" vertex="1" parent="1">
          <mxGeometry x="148" y="461.5" width="73" height="14" as="geometry" />
        </mxCell>
        <mxCell id="MyVD6oUSzkz2Ww6DniEh-218" value="" style="endArrow=classic;html=1;rounded=0;comic=0;jiggle=0;enumerate=0;backgroundOutline=0;metaEdit=0;fixDash=0;deletable=1;snapToPoint=0;exitX=0;exitY=0.5;exitDx=0;exitDy=0;fontSize=14;strokeWidth=2;" edge="1" parent="1" source="MyVD6oUSzkz2Ww6DniEh-219">
          <mxGeometry width="50" height="50" relative="1" as="geometry">
            <mxPoint x="277" y="488" as="sourcePoint" />
            <mxPoint x="247" y="488" as="targetPoint" />
          </mxGeometry>
        </mxCell>
        <mxCell id="MyVD6oUSzkz2Ww6DniEh-219" value="out_reg_sel" style="text;html=1;strokeColor=none;fillColor=none;align=center;verticalAlign=middle;whiteSpace=wrap;rounded=0;flipH=1;flipV=0;direction=west;" vertex="1" parent="1">
          <mxGeometry x="148" y="481" width="73" height="14" as="geometry" />
        </mxCell>
        <mxCell id="MyVD6oUSzkz2Ww6DniEh-220" value="" style="endArrow=none;html=1;rounded=0;" edge="1" parent="1">
          <mxGeometry width="50" height="50" relative="1" as="geometry">
            <mxPoint x="224" y="493" as="sourcePoint" />
            <mxPoint x="233" y="483" as="targetPoint" />
          </mxGeometry>
        </mxCell>
        <mxCell id="MyVD6oUSzkz2Ww6DniEh-221" value="&lt;font style=&quot;font-size: 9px;&quot;&gt;2-bits&lt;/font&gt;" style="text;html=1;strokeColor=none;fillColor=none;align=center;verticalAlign=middle;whiteSpace=wrap;rounded=0;comic=0;jiggle=0;enumerate=0;backgroundOutline=0;metaEdit=0;fixDash=0;deletable=1;snapToPoint=0;" vertex="1" parent="1">
          <mxGeometry x="215" y="494" width="27" height="12" as="geometry" />
        </mxCell>
        <mxCell id="MyVD6oUSzkz2Ww6DniEh-223" value="" style="shape=flexArrow;endArrow=none;startArrow=classic;html=1;rounded=0;startWidth=10.546623794212218;startSize=5.90096463022508;endWidth=10.546623794212218;endSize=5.90096463022508;width=6.4;fillColor=none;entryX=-0.006;entryY=0.636;entryDx=0;entryDy=0;entryPerimeter=0;comic=0;jiggle=0;enumerate=0;backgroundOutline=0;metaEdit=0;fixDash=0;deletable=1;snapToPoint=0;endFill=0;exitX=1;exitY=0.5;exitDx=0;exitDy=0;" edge="1" parent="1" source="MyVD6oUSzkz2Ww6DniEh-230">
          <mxGeometry width="100" height="100" relative="1" as="geometry">
            <mxPoint x="120.445" y="548" as="sourcePoint" />
            <mxPoint x="247.9960000000001" y="548.0039999999999" as="targetPoint" />
          </mxGeometry>
        </mxCell>
        <mxCell id="MyVD6oUSzkz2Ww6DniEh-224" value="" style="shape=flexArrow;endArrow=none;startArrow=classic;html=1;rounded=0;entryX=-0.002;entryY=0.232;entryDx=0;entryDy=0;comic=0;jiggle=0;enumerate=0;backgroundOutline=0;metaEdit=0;fixDash=0;deletable=1;snapToPoint=0;entryPerimeter=0;endFill=0;startWidth=17.5;startSize=5.5;exitX=1;exitY=0.5;exitDx=0;exitDy=0;" edge="1" parent="1" source="MyVD6oUSzkz2Ww6DniEh-229">
          <mxGeometry width="100" height="100" relative="1" as="geometry">
            <mxPoint x="119" y="515" as="sourcePoint" />
            <mxPoint x="247" y="515" as="targetPoint" />
          </mxGeometry>
        </mxCell>
        <mxCell id="MyVD6oUSzkz2Ww6DniEh-225" value="" style="endArrow=none;html=1;rounded=1;arcSize=10;jumpSize=2;endSize=2;targetPerimeterSpacing=3;strokeColor=default;comic=0;jiggle=0;enumerate=0;backgroundOutline=0;metaEdit=0;fixDash=0;deletable=1;snapToPoint=0;" edge="1" parent="1">
          <mxGeometry width="50" height="50" relative="1" as="geometry">
            <mxPoint x="179" y="559" as="sourcePoint" />
            <mxPoint x="199" y="539" as="targetPoint" />
          </mxGeometry>
        </mxCell>
        <mxCell id="MyVD6oUSzkz2Ww6DniEh-226" value="8-bits" style="text;html=1;strokeColor=none;fillColor=none;align=center;verticalAlign=middle;whiteSpace=wrap;rounded=0;comic=0;jiggle=0;enumerate=0;backgroundOutline=0;metaEdit=0;fixDash=0;deletable=1;snapToPoint=0;" vertex="1" parent="1">
          <mxGeometry x="170" y="557" width="39" height="20" as="geometry" />
        </mxCell>
        <mxCell id="MyVD6oUSzkz2Ww6DniEh-227" value="" style="endArrow=none;html=1;rounded=1;arcSize=10;jumpSize=2;endSize=2;targetPerimeterSpacing=3;strokeColor=default;comic=0;jiggle=0;enumerate=0;backgroundOutline=0;metaEdit=0;fixDash=0;deletable=1;snapToPoint=0;" edge="1" parent="1">
          <mxGeometry width="50" height="50" relative="1" as="geometry">
            <mxPoint x="179" y="525" as="sourcePoint" />
            <mxPoint x="199" y="505" as="targetPoint" />
          </mxGeometry>
        </mxCell>
        <mxCell id="MyVD6oUSzkz2Ww6DniEh-228" value="16-bits" style="text;html=1;strokeColor=none;fillColor=none;align=center;verticalAlign=middle;whiteSpace=wrap;rounded=0;comic=0;jiggle=0;enumerate=0;backgroundOutline=0;metaEdit=0;fixDash=0;deletable=1;snapToPoint=0;" vertex="1" parent="1">
          <mxGeometry x="170" y="523" width="39" height="20" as="geometry" />
        </mxCell>
        <mxCell id="MyVD6oUSzkz2Ww6DniEh-229" value="&lt;b&gt;Peripheral Address Bus&lt;/b&gt;" style="text;html=1;strokeColor=default;fillColor=none;align=center;verticalAlign=middle;whiteSpace=wrap;rounded=0;dashed=1;strokeWidth=0.5;perimeterSpacing=1;" vertex="1" parent="1">
          <mxGeometry x="30" y="499.5" width="89" height="30" as="geometry" />
        </mxCell>
        <mxCell id="MyVD6oUSzkz2Ww6DniEh-230" value="&lt;b&gt;Peripheral&lt;/b&gt;&lt;br&gt;&lt;b&gt;Data Bus&lt;/b&gt;" style="text;html=1;strokeColor=default;fillColor=none;align=center;verticalAlign=middle;whiteSpace=wrap;rounded=0;dashed=1;strokeWidth=0.5;perimeterSpacing=1;" vertex="1" parent="1">
          <mxGeometry x="29" y="533" width="90" height="30" as="geometry" />
        </mxCell>
        <mxCell id="MyVD6oUSzkz2Ww6DniEh-231" value="" style="endArrow=classic;html=1;rounded=0;comic=0;jiggle=0;enumerate=0;backgroundOutline=0;metaEdit=0;fixDash=0;deletable=1;snapToPoint=0;exitX=0;exitY=0.5;exitDx=0;exitDy=0;" edge="1" parent="1" source="MyVD6oUSzkz2Ww6DniEh-232">
          <mxGeometry width="50" height="50" relative="1" as="geometry">
            <mxPoint x="274" y="257" as="sourcePoint" />
            <mxPoint x="244" y="257" as="targetPoint" />
          </mxGeometry>
        </mxCell>
        <mxCell id="MyVD6oUSzkz2Ww6DniEh-232" value="CLK_sys" style="text;html=1;strokeColor=none;fillColor=none;align=center;verticalAlign=middle;whiteSpace=wrap;rounded=0;flipH=1;flipV=0;direction=west;" vertex="1" parent="1">
          <mxGeometry x="158" y="250" width="60" height="14" as="geometry" />
        </mxCell>
        <mxCell id="MyVD6oUSzkz2Ww6DniEh-233" value="" style="endArrow=classic;html=1;rounded=0;comic=0;jiggle=0;enumerate=0;backgroundOutline=0;metaEdit=0;fixDash=0;deletable=1;snapToPoint=0;exitX=0;exitY=0.5;exitDx=0;exitDy=0;" edge="1" parent="1" source="MyVD6oUSzkz2Ww6DniEh-234">
          <mxGeometry width="50" height="50" relative="1" as="geometry">
            <mxPoint x="274" y="275" as="sourcePoint" />
            <mxPoint x="244" y="275" as="targetPoint" />
          </mxGeometry>
        </mxCell>
        <mxCell id="MyVD6oUSzkz2Ww6DniEh-234" value="&lt;br&gt;&lt;u&gt;&amp;nbsp; &amp;nbsp; &amp;nbsp; &amp;nbsp; &amp;nbsp; &amp;nbsp;&lt;/u&gt;&lt;br&gt;RESET&lt;br&gt;&lt;br&gt;&lt;br&gt;" style="text;html=1;strokeColor=none;fillColor=none;align=center;verticalAlign=middle;whiteSpace=wrap;rounded=0;horizontal=1;labelPosition=center;verticalLabelPosition=middle;flipH=1;flipV=0;direction=west;" vertex="1" parent="1">
          <mxGeometry x="158" y="267" width="60" height="16" as="geometry" />
        </mxCell>
        <mxCell id="MyVD6oUSzkz2Ww6DniEh-235" value="" style="endArrow=classic;html=1;rounded=0;comic=0;jiggle=0;enumerate=0;backgroundOutline=0;metaEdit=0;fixDash=0;deletable=1;snapToPoint=0;exitX=0;exitY=0.5;exitDx=0;exitDy=0;" edge="1" parent="1">
          <mxGeometry width="50" height="50" relative="1" as="geometry">
            <mxPoint x="218" y="293.5" as="sourcePoint" />
            <mxPoint x="244" y="293.5" as="targetPoint" />
          </mxGeometry>
        </mxCell>
        <mxCell id="MyVD6oUSzkz2Ww6DniEh-236" value="MAR_we" style="text;html=1;strokeColor=none;fillColor=none;align=center;verticalAlign=middle;whiteSpace=wrap;rounded=0;flipH=1;flipV=0;direction=west;" vertex="1" parent="1">
          <mxGeometry x="145" y="284.5" width="73" height="14" as="geometry" />
        </mxCell>
        <mxCell id="MyVD6oUSzkz2Ww6DniEh-237" value="" style="endArrow=classic;html=1;rounded=0;comic=0;jiggle=0;enumerate=0;backgroundOutline=0;metaEdit=0;fixDash=0;deletable=1;snapToPoint=0;exitX=0;exitY=0.5;exitDx=0;exitDy=0;fontSize=14;strokeWidth=1;" edge="1" parent="1">
          <mxGeometry width="50" height="50" relative="1" as="geometry">
            <mxPoint x="218" y="313" as="sourcePoint" />
            <mxPoint x="244" y="313" as="targetPoint" />
          </mxGeometry>
        </mxCell>
        <mxCell id="MyVD6oUSzkz2Ww6DniEh-238" value="RAM_we" style="text;html=1;strokeColor=none;fillColor=none;align=center;verticalAlign=middle;whiteSpace=wrap;rounded=0;flipH=1;flipV=0;direction=west;" vertex="1" parent="1">
          <mxGeometry x="145" y="304" width="73" height="14" as="geometry" />
        </mxCell>
        <mxCell id="MyVD6oUSzkz2Ww6DniEh-241" value="" style="shape=trapezoid;perimeter=trapezoidPerimeter;whiteSpace=wrap;html=1;fixedSize=1;rotation=90;" vertex="1" parent="1">
          <mxGeometry x="438" y="310" width="82.5" height="29" as="geometry" />
        </mxCell>
        <mxCell id="MyVD6oUSzkz2Ww6DniEh-242" value="" style="endArrow=none;html=1;rounded=1;arcSize=10;jumpSize=2;endSize=2;targetPerimeterSpacing=3;strokeColor=default;comic=0;jiggle=0;enumerate=0;backgroundOutline=0;metaEdit=0;fixDash=0;deletable=1;snapToPoint=0;" edge="1" parent="1">
          <mxGeometry width="50" height="50" relative="1" as="geometry">
            <mxPoint x="505" y="334" as="sourcePoint" />
            <mxPoint x="525" y="314" as="targetPoint" />
          </mxGeometry>
        </mxCell>
        <mxCell id="MyVD6oUSzkz2Ww6DniEh-243" value="8-bits" style="text;html=1;strokeColor=none;fillColor=none;align=center;verticalAlign=middle;whiteSpace=wrap;rounded=0;comic=0;jiggle=0;enumerate=0;backgroundOutline=0;metaEdit=0;fixDash=0;deletable=1;snapToPoint=0;" vertex="1" parent="1">
          <mxGeometry x="498" y="334" width="39" height="20" as="geometry" />
        </mxCell>
        <mxCell id="MyVD6oUSzkz2Ww6DniEh-244" value="" style="endArrow=none;html=1;rounded=1;arcSize=10;jumpSize=2;endSize=2;targetPerimeterSpacing=3;strokeColor=default;comic=0;jiggle=0;enumerate=0;backgroundOutline=0;metaEdit=0;fixDash=0;deletable=1;snapToPoint=0;" edge="1" parent="1">
          <mxGeometry width="50" height="50" relative="1" as="geometry">
            <mxPoint x="413" y="334" as="sourcePoint" />
            <mxPoint x="433" y="314" as="targetPoint" />
          </mxGeometry>
        </mxCell>
        <mxCell id="MyVD6oUSzkz2Ww6DniEh-245" value="8-bits" style="text;html=1;strokeColor=none;fillColor=none;align=center;verticalAlign=middle;whiteSpace=wrap;rounded=0;comic=0;jiggle=0;enumerate=0;backgroundOutline=0;metaEdit=0;fixDash=0;deletable=1;snapToPoint=0;" vertex="1" parent="1">
          <mxGeometry x="407" y="334" width="39" height="20" as="geometry" />
        </mxCell>
        <mxCell id="MyVD6oUSzkz2Ww6DniEh-246" value="" style="shape=flexArrow;endArrow=block;startArrow=none;html=1;rounded=0;startWidth=10.546623794212218;startSize=5.90096463022508;endWidth=10.546623794212218;endSize=5.90096463022508;width=6.4;fillColor=none;entryX=0.003;entryY=0.281;entryDx=0;entryDy=0;comic=0;jiggle=0;enumerate=0;backgroundOutline=0;metaEdit=0;fixDash=0;deletable=1;snapToPoint=0;endFill=0;startFill=0;entryPerimeter=0;exitX=0.5;exitY=0;exitDx=0;exitDy=0;" edge="1" parent="1" source="MyVD6oUSzkz2Ww6DniEh-241" target="MyVD6oUSzkz2Ww6DniEh-8">
          <mxGeometry width="100" height="100" relative="1" as="geometry">
            <mxPoint x="491" y="324" as="sourcePoint" />
            <mxPoint x="546.9999999999998" y="324.25" as="targetPoint" />
          </mxGeometry>
        </mxCell>
        <mxCell id="MyVD6oUSzkz2Ww6DniEh-247" value="" style="shape=flexArrow;endArrow=block;startArrow=none;html=1;rounded=0;exitX=0.999;exitY=0.656;exitDx=0;exitDy=0;startWidth=10.546623794212218;startSize=5.90096463022508;endWidth=10.546623794212218;endSize=5.90096463022508;width=6.4;fillColor=none;comic=0;jiggle=0;enumerate=0;backgroundOutline=0;metaEdit=0;fixDash=0;deletable=1;snapToPoint=0;endFill=0;startFill=0;entryX=0.5;entryY=1;entryDx=0;entryDy=0;exitPerimeter=0;" edge="1" parent="1" target="MyVD6oUSzkz2Ww6DniEh-241" source="MyVD6oUSzkz2Ww6DniEh-4">
          <mxGeometry width="100" height="100" relative="1" as="geometry">
            <mxPoint x="405" y="325" as="sourcePoint" />
            <mxPoint x="459" y="325" as="targetPoint" />
          </mxGeometry>
        </mxCell>
        <mxCell id="MyVD6oUSzkz2Ww6DniEh-248" value="" style="endArrow=classic;html=1;rounded=0;comic=0;jiggle=0;enumerate=0;backgroundOutline=0;metaEdit=0;fixDash=0;deletable=1;snapToPoint=0;exitX=0.5;exitY=0;exitDx=0;exitDy=0;entryX=1;entryY=0.5;entryDx=0;entryDy=0;" edge="1" parent="1" source="MyVD6oUSzkz2Ww6DniEh-249" target="MyVD6oUSzkz2Ww6DniEh-241">
          <mxGeometry width="50" height="50" relative="1" as="geometry">
            <mxPoint x="475" y="381" as="sourcePoint" />
            <mxPoint x="475" y="357" as="targetPoint" />
          </mxGeometry>
        </mxCell>
        <mxCell id="MyVD6oUSzkz2Ww6DniEh-249" value="MEM_OUT" style="text;html=1;strokeColor=none;fillColor=none;align=center;verticalAlign=middle;whiteSpace=wrap;rounded=0;" vertex="1" parent="1">
          <mxGeometry x="449.25" y="382" width="60" height="14" as="geometry" />
        </mxCell>
        <mxCell id="MyVD6oUSzkz2Ww6DniEh-311" value="" style="endArrow=none;html=1;rounded=0;comic=0;jiggle=0;enumerate=0;backgroundOutline=0;metaEdit=0;fixDash=0;deletable=1;snapToPoint=0;entryX=1;entryY=0.5;entryDx=0;entryDy=0;exitX=0;exitY=0.5;exitDx=0;exitDy=0;startArrow=classic;startFill=1;endFill=0;" edge="1" parent="1" source="MyVD6oUSzkz2Ww6DniEh-312">
          <mxGeometry width="50" height="50" relative="1" as="geometry">
            <mxPoint x="686.5" y="848.5" as="sourcePoint" />
            <mxPoint x="686.25" y="823.25" as="targetPoint" />
          </mxGeometry>
        </mxCell>
        <mxCell id="MyVD6oUSzkz2Ww6DniEh-312" value="MEM_OUT" style="text;html=1;strokeColor=none;fillColor=none;align=center;verticalAlign=middle;whiteSpace=wrap;rounded=0;flipH=1;rotation=90;" vertex="1" parent="1">
          <mxGeometry x="649.25" y="887.75" width="74.5" height="14" as="geometry" />
        </mxCell>
        <mxCell id="MyVD6oUSzkz2Ww6DniEh-313" value="" style="endArrow=none;html=1;rounded=0;comic=0;jiggle=0;enumerate=0;backgroundOutline=0;metaEdit=0;fixDash=0;deletable=1;snapToPoint=0;entryX=0;entryY=0.5;entryDx=0;entryDy=0;exitX=0;exitY=0.5;exitDx=0;exitDy=0;startArrow=classic;startFill=1;endFill=0;" edge="1" parent="1" source="MyVD6oUSzkz2Ww6DniEh-314">
          <mxGeometry width="50" height="50" relative="1" as="geometry">
            <mxPoint x="707" y="845.8800000000001" as="sourcePoint" />
            <mxPoint x="706.75" y="823.13" as="targetPoint" />
          </mxGeometry>
        </mxCell>
        <mxCell id="MyVD6oUSzkz2Ww6DniEh-314" value="REG_OUT" style="text;html=1;strokeColor=none;fillColor=none;align=center;verticalAlign=middle;whiteSpace=wrap;rounded=0;rotation=90;" vertex="1" parent="1">
          <mxGeometry x="671.5" y="886.38" width="71" height="14" as="geometry" />
        </mxCell>
        <mxCell id="MyVD6oUSzkz2Ww6DniEh-315" value="" style="endArrow=none;html=1;rounded=0;comic=0;jiggle=0;enumerate=0;backgroundOutline=0;metaEdit=0;fixDash=0;deletable=1;snapToPoint=0;entryX=0;entryY=0.5;entryDx=0;entryDy=0;exitX=0;exitY=0.5;exitDx=0;exitDy=0;startArrow=classic;startFill=1;endFill=0;" edge="1" parent="1" source="MyVD6oUSzkz2Ww6DniEh-316">
          <mxGeometry width="50" height="50" relative="1" as="geometry">
            <mxPoint x="750" y="857.0000000000001" as="sourcePoint" />
            <mxPoint x="750" y="823" as="targetPoint" />
          </mxGeometry>
        </mxCell>
        <mxCell id="MyVD6oUSzkz2Ww6DniEh-316" value="ALU_OUT" style="text;html=1;strokeColor=none;fillColor=none;align=center;verticalAlign=middle;whiteSpace=wrap;rounded=0;rotation=90;" vertex="1" parent="1">
          <mxGeometry x="714" y="886.25" width="72" height="14" as="geometry" />
        </mxCell>
        <mxCell id="MyVD6oUSzkz2Ww6DniEh-319" value="" style="endArrow=none;html=1;rounded=0;comic=0;jiggle=0;enumerate=0;backgroundOutline=0;metaEdit=0;fixDash=0;deletable=1;snapToPoint=0;entryX=0;entryY=0.5;entryDx=0;entryDy=0;exitX=0;exitY=0.5;exitDx=0;exitDy=0;startArrow=classic;startFill=1;endFill=0;" edge="1" parent="1">
          <mxGeometry width="50" height="50" relative="1" as="geometry">
            <mxPoint x="729.4999999999998" y="857.0000000000001" as="sourcePoint" />
            <mxPoint x="729.25" y="822.75" as="targetPoint" />
          </mxGeometry>
        </mxCell>
        <mxCell id="MyVD6oUSzkz2Ww6DniEh-320" value="FLAGS_OUT" style="text;html=1;strokeColor=none;fillColor=none;align=center;verticalAlign=middle;whiteSpace=wrap;rounded=0;rotation=90;" vertex="1" parent="1">
          <mxGeometry x="687" y="893.5" width="85" height="14" as="geometry" />
        </mxCell>
        <mxCell id="MyVD6oUSzkz2Ww6DniEh-286" value="" style="endArrow=none;html=1;rounded=0;comic=0;jiggle=0;enumerate=0;backgroundOutline=0;metaEdit=0;fixDash=0;deletable=1;snapToPoint=0;exitX=1;exitY=0.5;exitDx=0;exitDy=0;startArrow=classic;startFill=1;endFill=0;" edge="1" parent="1" source="MyVD6oUSzkz2Ww6DniEh-287">
          <mxGeometry width="50" height="50" relative="1" as="geometry">
            <mxPoint x="631" y="793" as="sourcePoint" />
            <mxPoint x="631" y="823" as="targetPoint" />
          </mxGeometry>
        </mxCell>
        <mxCell id="MyVD6oUSzkz2Ww6DniEh-287" value="CLK_sys" style="text;html=1;strokeColor=none;fillColor=none;align=center;verticalAlign=middle;whiteSpace=wrap;rounded=0;flipH=0;flipV=1;direction=west;rotation=90;horizontal=1;" vertex="1" parent="1">
          <mxGeometry x="601" y="881" width="60" height="14" as="geometry" />
        </mxCell>
        <mxCell id="MyVD6oUSzkz2Ww6DniEh-290" value="" style="endArrow=none;html=1;rounded=0;comic=0;jiggle=0;enumerate=0;backgroundOutline=0;metaEdit=0;fixDash=0;deletable=1;snapToPoint=0;exitX=0;exitY=0.5;exitDx=0;exitDy=0;startArrow=classic;startFill=1;endFill=0;" edge="1" parent="1" source="MyVD6oUSzkz2Ww6DniEh-291">
          <mxGeometry width="50" height="50" relative="1" as="geometry">
            <mxPoint x="648" y="849" as="sourcePoint" />
            <mxPoint x="648" y="823" as="targetPoint" />
          </mxGeometry>
        </mxCell>
        <mxCell id="MyVD6oUSzkz2Ww6DniEh-291" value="MAR_we" style="text;html=1;strokeColor=none;fillColor=none;align=center;verticalAlign=middle;whiteSpace=wrap;rounded=0;flipH=0;flipV=1;direction=east;rotation=90;horizontal=1;" vertex="1" parent="1">
          <mxGeometry x="617" y="882" width="63" height="14" as="geometry" />
        </mxCell>
        <mxCell id="MyVD6oUSzkz2Ww6DniEh-292" value="" style="endArrow=none;html=1;rounded=0;comic=0;jiggle=0;enumerate=0;backgroundOutline=0;metaEdit=0;fixDash=0;deletable=1;snapToPoint=0;exitX=0;exitY=0.5;exitDx=0;exitDy=0;fontSize=14;strokeWidth=1;startArrow=classic;startFill=1;endFill=0;" edge="1" parent="1" source="MyVD6oUSzkz2Ww6DniEh-293">
          <mxGeometry width="50" height="50" relative="1" as="geometry">
            <mxPoint x="668" y="849" as="sourcePoint" />
            <mxPoint x="668" y="823" as="targetPoint" />
          </mxGeometry>
        </mxCell>
        <mxCell id="MyVD6oUSzkz2Ww6DniEh-293" value="RAM_we" style="text;html=1;strokeColor=none;fillColor=none;align=center;verticalAlign=middle;whiteSpace=wrap;rounded=0;flipH=0;flipV=1;direction=east;rotation=90;horizontal=1;" vertex="1" parent="1">
          <mxGeometry x="637" y="882" width="63" height="14" as="geometry" />
        </mxCell>
        <mxCell id="MyVD6oUSzkz2Ww6DniEh-298" value="" style="endArrow=none;html=1;rounded=0;comic=0;jiggle=0;enumerate=0;backgroundOutline=0;metaEdit=0;fixDash=0;deletable=1;snapToPoint=0;startArrow=classic;startFill=1;endFill=0;exitX=1;exitY=0.5;exitDx=0;exitDy=0;" edge="1" parent="1" source="MyVD6oUSzkz2Ww6DniEh-299">
          <mxGeometry width="50" height="50" relative="1" as="geometry">
            <mxPoint x="389" y="850" as="sourcePoint" />
            <mxPoint x="389" y="824" as="targetPoint" />
          </mxGeometry>
        </mxCell>
        <mxCell id="MyVD6oUSzkz2Ww6DniEh-299" value="out_reg_we" style="text;html=1;strokeColor=none;fillColor=none;align=center;verticalAlign=middle;whiteSpace=wrap;rounded=0;flipH=1;flipV=0;direction=west;rotation=90;" vertex="1" parent="1">
          <mxGeometry x="350" y="888" width="79" height="14" as="geometry" />
        </mxCell>
        <mxCell id="MyVD6oUSzkz2Ww6DniEh-300" value="" style="endArrow=none;html=1;rounded=0;comic=0;jiggle=0;enumerate=0;backgroundOutline=0;metaEdit=0;fixDash=0;deletable=1;snapToPoint=0;fontSize=14;strokeWidth=2;startArrow=classic;startFill=1;endFill=0;exitX=1;exitY=0.5;exitDx=0;exitDy=0;" edge="1" parent="1" source="MyVD6oUSzkz2Ww6DniEh-301">
          <mxGeometry width="50" height="50" relative="1" as="geometry">
            <mxPoint x="373" y="850" as="sourcePoint" />
            <mxPoint x="373" y="824" as="targetPoint" />
          </mxGeometry>
        </mxCell>
        <mxCell id="MyVD6oUSzkz2Ww6DniEh-301" value="out_reg_sel" style="text;html=1;strokeColor=none;fillColor=none;align=center;verticalAlign=middle;whiteSpace=wrap;rounded=0;flipH=1;flipV=0;direction=west;rotation=90;" vertex="1" parent="1">
          <mxGeometry x="333" y="888" width="79" height="14" as="geometry" />
        </mxCell>
        <mxCell id="MyVD6oUSzkz2Ww6DniEh-302" value="" style="endArrow=none;html=1;rounded=0;" edge="1" parent="1">
          <mxGeometry width="50" height="50" relative="1" as="geometry">
            <mxPoint x="378" y="836" as="sourcePoint" />
            <mxPoint x="368" y="827" as="targetPoint" />
          </mxGeometry>
        </mxCell>
        <mxCell id="MyVD6oUSzkz2Ww6DniEh-303" value="&lt;font style=&quot;font-size: 9px;&quot;&gt;2-bits&lt;/font&gt;" style="text;html=1;strokeColor=none;fillColor=none;align=center;verticalAlign=middle;whiteSpace=wrap;rounded=0;comic=0;jiggle=0;enumerate=0;backgroundOutline=0;metaEdit=0;fixDash=0;deletable=1;snapToPoint=0;rotation=90;" vertex="1" parent="1">
          <mxGeometry x="350" y="832" width="27" height="12" as="geometry" />
        </mxCell>
        <mxCell id="MyVD6oUSzkz2Ww6DniEh-268" value="" style="endArrow=none;html=1;rounded=0;comic=0;jiggle=0;enumerate=0;backgroundOutline=0;metaEdit=0;fixDash=0;deletable=1;snapToPoint=0;exitX=0;exitY=0.5;exitDx=0;exitDy=0;startArrow=classic;startFill=1;endFill=0;" edge="1" parent="1" source="MyVD6oUSzkz2Ww6DniEh-269">
          <mxGeometry width="50" height="50" relative="1" as="geometry">
            <mxPoint x="596" y="853" as="sourcePoint" />
            <mxPoint x="596" y="823" as="targetPoint" />
          </mxGeometry>
        </mxCell>
        <mxCell id="MyVD6oUSzkz2Ww6DniEh-269" value="Acc_store" style="text;html=1;strokeColor=none;fillColor=none;align=center;verticalAlign=middle;whiteSpace=wrap;rounded=0;rotation=90;" vertex="1" parent="1">
          <mxGeometry x="563" y="884" width="66" height="13" as="geometry" />
        </mxCell>
        <mxCell id="MyVD6oUSzkz2Ww6DniEh-270" value="" style="endArrow=none;html=1;rounded=0;comic=0;jiggle=0;enumerate=0;backgroundOutline=0;metaEdit=0;fixDash=0;deletable=1;snapToPoint=0;exitX=0;exitY=0.5;exitDx=0;exitDy=0;startArrow=classic;startFill=1;endFill=0;" edge="1" parent="1" source="MyVD6oUSzkz2Ww6DniEh-271">
          <mxGeometry width="50" height="50" relative="1" as="geometry">
            <mxPoint x="579" y="853" as="sourcePoint" />
            <mxPoint x="579" y="823" as="targetPoint" />
          </mxGeometry>
        </mxCell>
        <mxCell id="MyVD6oUSzkz2Ww6DniEh-271" value="Acc_restore" style="text;html=1;strokeColor=none;fillColor=none;align=center;verticalAlign=middle;whiteSpace=wrap;rounded=0;rotation=90;" vertex="1" parent="1">
          <mxGeometry x="540.38" y="888.62" width="76.75" height="13" as="geometry" />
        </mxCell>
        <mxCell id="MyVD6oUSzkz2Ww6DniEh-272" value="" style="endArrow=none;html=1;rounded=0;comic=0;jiggle=0;enumerate=0;backgroundOutline=0;metaEdit=0;fixDash=0;deletable=1;snapToPoint=0;exitX=0;exitY=0.5;exitDx=0;exitDy=0;startArrow=classic;startFill=1;endFill=0;" edge="1" parent="1" source="MyVD6oUSzkz2Ww6DniEh-273">
          <mxGeometry width="50" height="50" relative="1" as="geometry">
            <mxPoint x="563" y="853" as="sourcePoint" />
            <mxPoint x="563" y="823" as="targetPoint" />
          </mxGeometry>
        </mxCell>
        <mxCell id="MyVD6oUSzkz2Ww6DniEh-273" value="Acc_we" style="text;html=1;strokeColor=none;fillColor=none;align=center;verticalAlign=middle;whiteSpace=wrap;rounded=0;rotation=90;" vertex="1" parent="1">
          <mxGeometry x="535.5" y="876.5" width="55" height="15" as="geometry" />
        </mxCell>
        <mxCell id="MyVD6oUSzkz2Ww6DniEh-274" value="" style="endArrow=none;html=1;rounded=0;comic=0;jiggle=0;enumerate=0;backgroundOutline=0;metaEdit=0;fixDash=0;deletable=1;snapToPoint=0;exitX=0;exitY=0.5;exitDx=0;exitDy=0;startArrow=classic;startFill=1;endFill=0;" edge="1" parent="1" source="MyVD6oUSzkz2Ww6DniEh-275">
          <mxGeometry width="50" height="50" relative="1" as="geometry">
            <mxPoint x="546" y="853" as="sourcePoint" />
            <mxPoint x="546" y="823" as="targetPoint" />
          </mxGeometry>
        </mxCell>
        <mxCell id="MyVD6oUSzkz2Ww6DniEh-275" value="TMP_we" style="text;html=1;strokeColor=none;fillColor=none;align=center;verticalAlign=middle;whiteSpace=wrap;rounded=0;rotation=90;" vertex="1" parent="1">
          <mxGeometry x="516.5" y="879.5" width="59" height="14" as="geometry" />
        </mxCell>
        <mxCell id="MyVD6oUSzkz2Ww6DniEh-276" value="" style="endArrow=none;html=1;rounded=0;comic=0;jiggle=0;enumerate=0;backgroundOutline=0;metaEdit=0;fixDash=0;deletable=1;snapToPoint=0;exitX=0;exitY=0.5;exitDx=0;exitDy=0;startArrow=classic;startFill=1;endFill=0;" edge="1" parent="1" source="MyVD6oUSzkz2Ww6DniEh-277">
          <mxGeometry width="50" height="50" relative="1" as="geometry">
            <mxPoint x="529" y="853" as="sourcePoint" />
            <mxPoint x="529" y="823" as="targetPoint" />
          </mxGeometry>
        </mxCell>
        <mxCell id="MyVD6oUSzkz2Ww6DniEh-277" value="Flags_we" style="text;html=1;strokeColor=none;fillColor=none;align=center;verticalAlign=middle;whiteSpace=wrap;rounded=0;rotation=90;" vertex="1" parent="1">
          <mxGeometry x="497.5" y="881.5" width="63" height="14" as="geometry" />
        </mxCell>
        <mxCell id="MyVD6oUSzkz2Ww6DniEh-278" value="" style="endArrow=none;html=1;rounded=0;comic=0;jiggle=0;enumerate=0;backgroundOutline=0;metaEdit=0;fixDash=0;deletable=1;snapToPoint=0;exitX=0;exitY=0.5;exitDx=0;exitDy=0;startArrow=classic;startFill=1;endFill=0;" edge="1" parent="1" source="MyVD6oUSzkz2Ww6DniEh-279">
          <mxGeometry width="50" height="50" relative="1" as="geometry">
            <mxPoint x="512" y="853" as="sourcePoint" />
            <mxPoint x="512" y="823" as="targetPoint" />
          </mxGeometry>
        </mxCell>
        <mxCell id="MyVD6oUSzkz2Ww6DniEh-279" value="cs" style="text;html=1;strokeColor=none;fillColor=none;align=center;verticalAlign=middle;whiteSpace=wrap;rounded=0;rotation=90;" vertex="1" parent="1">
          <mxGeometry x="499.75" y="862.25" width="24.5" height="14" as="geometry" />
        </mxCell>
        <mxCell id="MyVD6oUSzkz2Ww6DniEh-280" value="" style="endArrow=none;html=1;rounded=0;comic=0;jiggle=0;enumerate=0;backgroundOutline=0;metaEdit=0;fixDash=0;deletable=1;snapToPoint=0;exitX=0;exitY=0.5;exitDx=0;exitDy=0;strokeWidth=2;startArrow=classic;startFill=1;endFill=0;" edge="1" parent="1" source="MyVD6oUSzkz2Ww6DniEh-281">
          <mxGeometry width="50" height="50" relative="1" as="geometry">
            <mxPoint x="496" y="853" as="sourcePoint" />
            <mxPoint x="496" y="823" as="targetPoint" />
          </mxGeometry>
        </mxCell>
        <mxCell id="MyVD6oUSzkz2Ww6DniEh-281" value="Op" style="text;html=1;strokeColor=none;fillColor=none;align=center;verticalAlign=middle;whiteSpace=wrap;rounded=0;rotation=90;" vertex="1" parent="1">
          <mxGeometry x="481" y="865" width="30" height="14" as="geometry" />
        </mxCell>
        <mxCell id="MyVD6oUSzkz2Ww6DniEh-282" value="" style="endArrow=none;html=1;rounded=0;" edge="1" parent="1">
          <mxGeometry width="50" height="50" relative="1" as="geometry">
            <mxPoint x="490" y="828" as="sourcePoint" />
            <mxPoint x="500" y="837" as="targetPoint" />
          </mxGeometry>
        </mxCell>
        <mxCell id="MyVD6oUSzkz2Ww6DniEh-283" value="&lt;font style=&quot;font-size: 9px;&quot;&gt;5-bits&lt;/font&gt;" style="text;html=1;strokeColor=none;fillColor=none;align=center;verticalAlign=middle;whiteSpace=wrap;rounded=0;comic=0;jiggle=0;enumerate=0;backgroundOutline=0;metaEdit=0;fixDash=0;deletable=1;snapToPoint=0;rotation=90;" vertex="1" parent="1">
          <mxGeometry x="470" y="830" width="27" height="12" as="geometry" />
        </mxCell>
        <mxCell id="MyVD6oUSzkz2Ww6DniEh-256" value="" style="endArrow=none;html=1;rounded=0;comic=0;jiggle=0;enumerate=0;backgroundOutline=0;metaEdit=0;fixDash=0;deletable=1;snapToPoint=0;exitX=0;exitY=0.5;exitDx=0;exitDy=0;startArrow=classic;startFill=1;endFill=0;" edge="1" parent="1" source="MyVD6oUSzkz2Ww6DniEh-257">
          <mxGeometry width="50" height="50" relative="1" as="geometry">
            <mxPoint x="471" y="853.5" as="sourcePoint" />
            <mxPoint x="471" y="823.5" as="targetPoint" />
          </mxGeometry>
        </mxCell>
        <mxCell id="MyVD6oUSzkz2Ww6DniEh-257" value="rd_sel" style="text;html=1;strokeColor=none;fillColor=none;align=center;verticalAlign=middle;whiteSpace=wrap;rounded=0;rotation=90;" vertex="1" parent="1">
          <mxGeometry x="446.5" y="874" width="49" height="13" as="geometry" />
        </mxCell>
        <mxCell id="MyVD6oUSzkz2Ww6DniEh-258" value="" style="endArrow=none;html=1;rounded=0;comic=0;jiggle=0;enumerate=0;backgroundOutline=0;metaEdit=0;fixDash=0;deletable=1;snapToPoint=0;exitX=0;exitY=0.5;exitDx=0;exitDy=0;startArrow=classic;startFill=1;endFill=0;" edge="1" parent="1" source="MyVD6oUSzkz2Ww6DniEh-259">
          <mxGeometry width="50" height="50" relative="1" as="geometry">
            <mxPoint x="454" y="853.5" as="sourcePoint" />
            <mxPoint x="454" y="823.5" as="targetPoint" />
          </mxGeometry>
        </mxCell>
        <mxCell id="MyVD6oUSzkz2Ww6DniEh-259" value="wr_sel" style="text;html=1;strokeColor=none;fillColor=none;align=center;verticalAlign=middle;whiteSpace=wrap;rounded=0;rotation=90;" vertex="1" parent="1">
          <mxGeometry x="428" y="875" width="52" height="13" as="geometry" />
        </mxCell>
        <mxCell id="MyVD6oUSzkz2Ww6DniEh-260" value="" style="endArrow=none;html=1;rounded=0;comic=0;jiggle=0;enumerate=0;backgroundOutline=0;metaEdit=0;fixDash=0;deletable=1;snapToPoint=0;exitX=0;exitY=0.5;exitDx=0;exitDy=0;startArrow=classic;startFill=1;endFill=0;" edge="1" parent="1" source="MyVD6oUSzkz2Ww6DniEh-261">
          <mxGeometry width="50" height="50" relative="1" as="geometry">
            <mxPoint x="438" y="853.5" as="sourcePoint" />
            <mxPoint x="438" y="823.5" as="targetPoint" />
          </mxGeometry>
        </mxCell>
        <mxCell id="MyVD6oUSzkz2Ww6DniEh-261" value="ext_op" style="text;html=1;strokeColor=none;fillColor=none;align=center;verticalAlign=middle;whiteSpace=wrap;rounded=0;rotation=90;" vertex="1" parent="1">
          <mxGeometry x="412" y="874" width="52" height="15" as="geometry" />
        </mxCell>
        <mxCell id="MyVD6oUSzkz2Ww6DniEh-262" value="" style="endArrow=none;html=1;rounded=0;comic=0;jiggle=0;enumerate=0;backgroundOutline=0;metaEdit=0;fixDash=0;deletable=1;snapToPoint=0;exitX=0;exitY=0.5;exitDx=0;exitDy=0;startArrow=classic;startFill=1;endFill=0;" edge="1" parent="1" source="MyVD6oUSzkz2Ww6DniEh-263">
          <mxGeometry width="50" height="50" relative="1" as="geometry">
            <mxPoint x="422" y="853.5" as="sourcePoint" />
            <mxPoint x="421" y="823.5" as="targetPoint" />
          </mxGeometry>
        </mxCell>
        <mxCell id="MyVD6oUSzkz2Ww6DniEh-263" value="reg_we" style="text;html=1;strokeColor=none;fillColor=none;align=center;verticalAlign=middle;whiteSpace=wrap;rounded=0;rotation=90;" vertex="1" parent="1">
          <mxGeometry x="394" y="876" width="54" height="14" as="geometry" />
        </mxCell>
        <mxCell id="MyVD6oUSzkz2Ww6DniEh-284" value="" style="endArrow=none;html=1;entryX=0.5;entryY=0;entryDx=0;entryDy=0;comic=0;jiggle=0;enumerate=0;backgroundOutline=0;metaEdit=0;fixDash=0;deletable=1;snapToPoint=0;rounded=0;exitX=0.5;exitY=0.988;exitDx=0;exitDy=0;exitPerimeter=0;startArrow=classic;startFill=1;endFill=0;" edge="1" parent="1" source="MyVD6oUSzkz2Ww6DniEh-285">
          <mxGeometry width="50" height="50" relative="1" as="geometry">
            <mxPoint x="615" y="849" as="sourcePoint" />
            <mxPoint x="614" y="823" as="targetPoint" />
          </mxGeometry>
        </mxCell>
        <mxCell id="MyVD6oUSzkz2Ww6DniEh-285" value="En_CLK" style="text;html=1;strokeColor=none;fillColor=none;align=center;verticalAlign=middle;whiteSpace=wrap;rounded=0;comic=0;jiggle=0;enumerate=0;backgroundOutline=0;metaEdit=0;fixDash=0;deletable=1;snapToPoint=0;horizontal=0;rotation=-180;" vertex="1" parent="1">
          <mxGeometry x="603" y="857" width="21" height="59" as="geometry" />
        </mxCell>
        <mxCell id="MyVD6oUSzkz2Ww6DniEh-309" value="" style="endArrow=none;html=1;rounded=0;comic=0;jiggle=0;enumerate=0;backgroundOutline=0;metaEdit=0;fixDash=0;deletable=1;snapToPoint=0;exitX=1;exitY=0.5;exitDx=0;exitDy=0;startArrow=classic;startFill=1;endFill=0;" edge="1" parent="1" source="MyVD6oUSzkz2Ww6DniEh-310">
          <mxGeometry width="50" height="50" relative="1" as="geometry">
            <mxPoint x="404" y="844.75" as="sourcePoint" />
            <mxPoint x="404" y="824" as="targetPoint" />
          </mxGeometry>
        </mxCell>
        <mxCell id="MyVD6oUSzkz2Ww6DniEh-310" value="ir_we" style="text;html=1;strokeColor=none;fillColor=none;align=center;verticalAlign=middle;whiteSpace=wrap;rounded=0;flipH=1;flipV=0;direction=west;rotation=90;" vertex="1" parent="1">
          <mxGeometry x="382.5" y="870.5" width="43" height="14" as="geometry" />
        </mxCell>
        <mxCell id="MyVD6oUSzkz2Ww6DniEh-333" value="" style="shape=curlyBracket;whiteSpace=wrap;html=1;rounded=1;labelPosition=left;verticalLabelPosition=middle;align=right;verticalAlign=middle;rotation=-90;" vertex="1" parent="1">
          <mxGeometry x="549.38" y="740.13" width="20" height="413.75" as="geometry" />
        </mxCell>
        <mxCell id="MyVD6oUSzkz2Ww6DniEh-334" value="&lt;b&gt;&lt;font style=&quot;font-size: 17px;&quot;&gt;35 Bits&lt;/font&gt;&lt;/b&gt;" style="text;html=1;strokeColor=none;fillColor=none;align=center;verticalAlign=middle;whiteSpace=wrap;rounded=0;" vertex="1" parent="1">
          <mxGeometry x="531" y="956" width="60" height="30" as="geometry" />
        </mxCell>
        <mxCell id="MyVD6oUSzkz2Ww6DniEh-335" value="" style="endArrow=classic;html=1;rounded=0;comic=0;jiggle=0;enumerate=0;backgroundOutline=0;metaEdit=0;fixDash=0;deletable=1;snapToPoint=0;startArrow=none;startFill=0;endFill=1;" edge="1" parent="1" source="MyVD6oUSzkz2Ww6DniEh-336">
          <mxGeometry width="50" height="50" relative="1" as="geometry">
            <mxPoint x="169" y="803" as="sourcePoint" />
            <mxPoint x="199" y="803" as="targetPoint" />
          </mxGeometry>
        </mxCell>
        <mxCell id="MyVD6oUSzkz2Ww6DniEh-336" value="CLK_sys" style="text;html=1;strokeColor=none;fillColor=none;align=center;verticalAlign=middle;whiteSpace=wrap;rounded=0;rotation=0;flipV=1;horizontal=1;" vertex="1" parent="1">
          <mxGeometry x="105" y="796" width="59" height="14" as="geometry" />
        </mxCell>
        <mxCell id="MyVD6oUSzkz2Ww6DniEh-337" value="" style="endArrow=classic;html=1;rounded=0;comic=0;jiggle=0;enumerate=0;backgroundOutline=0;metaEdit=0;fixDash=0;deletable=1;snapToPoint=0;exitX=1;exitY=0.5;exitDx=0;exitDy=0;startArrow=none;startFill=0;endFill=1;" edge="1" parent="1" source="MyVD6oUSzkz2Ww6DniEh-338">
          <mxGeometry width="50" height="50" relative="1" as="geometry">
            <mxPoint x="169" y="785" as="sourcePoint" />
            <mxPoint x="199" y="785" as="targetPoint" />
          </mxGeometry>
        </mxCell>
        <mxCell id="MyVD6oUSzkz2Ww6DniEh-338" value="&lt;br&gt;&lt;u&gt;&amp;nbsp; &amp;nbsp; &amp;nbsp; &amp;nbsp; &amp;nbsp; &amp;nbsp;&lt;/u&gt;&lt;br&gt;RESET&lt;br&gt;&lt;br&gt;&lt;br&gt;" style="text;html=1;strokeColor=none;fillColor=none;align=center;verticalAlign=middle;whiteSpace=wrap;rounded=0;horizontal=1;labelPosition=center;verticalLabelPosition=middle;rotation=0;flipH=1;flipV=1;" vertex="1" parent="1">
          <mxGeometry x="112" y="777" width="52" height="16" as="geometry" />
        </mxCell>
      </root>
    </mxGraphModel>
  </diagram>
</mxfile>
